<svg width="34" height="34" viewBox="0 0 34 34" fill="none" xmlns="http://www.w3.org/2000/svg">
<path d="M20.1406 4.95784C18.1275 4.01405 15.8715 4.01405 13.8584 4.95784L7.7762 7.80931C8.88395 7.92885 9.8967 8.62664 10.3669 9.72367C11.0603 11.3417 10.3108 13.2156 8.69269 13.9091L7.16882 14.5622C6.41159 14.8867 5.98186 15.0742 5.69176 15.2229C5.69016 15.2461 5.68866 15.2699 5.68726 15.2946L13.8585 19.1255C15.8716 20.0693 18.1276 20.0693 20.1407 19.1255L29.6198 14.6815C31.6817 13.7148 31.6817 10.3686 29.6198 9.4019L20.1406 4.95784Z" fill="white"/>
<path d="M7.08289 18.2959V23.5527C7.08289 24.9807 7.79619 26.3177 9.04545 27.0096C11.1256 28.1616 14.4552 29.75 16.9996 29.75C19.5439 29.75 22.8735 28.1616 24.9537 27.0096C26.2029 26.3177 26.9162 24.9807 26.9162 23.5527V18.2959L21.0427 21.0495C18.4581 22.2613 15.5411 22.2613 12.9565 21.0495L7.08289 18.2959Z" fill="white"/>
<path d="M7.85588 11.956C8.39524 11.7249 8.64509 11.1003 8.41393 10.5609C8.18278 10.0215 7.55816 9.77169 7.0188 10.0028L5.44435 10.6776C4.6546 11.016 3.98531 11.3029 3.4601 11.5983C2.90124 11.9127 2.42023 12.2817 2.05994 12.8281C1.69965 13.3745 1.54997 13.962 1.48114 14.5995C1.41645 15.1986 1.41648 15.9268 1.41651 16.7859V20.8961C1.41651 21.4829 1.8922 21.9586 2.47901 21.9586C3.06581 21.9586 3.54151 21.4829 3.54151 20.8961V16.841C3.54151 15.912 3.54294 15.2992 3.59386 14.8276C3.64202 14.3816 3.72632 14.1612 3.83398 13.9979C3.94163 13.8346 4.11103 13.6703 4.50201 13.4504C4.91546 13.2178 5.47808 12.9751 6.332 12.6091L7.85588 11.956Z" fill="white"/>
</svg>
