<svg width="11" height="11" viewBox="0 0 11 11" fill="none" xmlns="http://www.w3.org/2000/svg">
<path d="M1.3285 2.12566C1.36976 2.06353 1.434 2.02034 1.5071 2.00557C1.5802 1.9908 1.65617 2.00567 1.71831 2.04691L2.56206 2.60997C2.62175 2.65229 2.66259 2.7162 2.67592 2.78814C2.68926 2.86008 2.67404 2.93438 2.63349 2.99528C2.59294 3.05618 2.53025 3.09888 2.45873 3.11432C2.38722 3.12976 2.3125 3.11672 2.25044 3.07797L1.40669 2.51547C1.34465 2.47413 1.30157 2.40984 1.28691 2.33675C1.27225 2.26366 1.28721 2.18773 1.3285 2.12566ZM5.5 2.00022C4.82867 2.00022 4.18484 2.26691 3.71014 2.74161C3.23543 3.21631 2.96875 3.86014 2.96875 4.53147V5.88204L2.4265 7.23935C2.4094 7.28202 2.40302 7.32824 2.40792 7.37395C2.41282 7.41966 2.42885 7.46347 2.4546 7.50155C2.48036 7.53963 2.51506 7.57081 2.55566 7.59237C2.59626 7.61393 2.64153 7.62521 2.6875 7.62522H8.3125C8.3584 7.62518 8.40359 7.6139 8.44413 7.59236C8.48467 7.57083 8.51932 7.53971 8.54507 7.5017C8.57081 7.4637 8.58686 7.41997 8.59182 7.37434C8.59677 7.32871 8.59048 7.28255 8.5735 7.23991L8.03125 5.88147V4.53147C8.03125 3.86014 7.76457 3.21631 7.28986 2.74161C6.81516 2.26691 6.17133 2.00022 5.5 2.00022ZM5.5 9.03147C5.25054 9.03154 5.00814 8.94869 4.81091 8.79595C4.61368 8.64322 4.4728 8.42926 4.41044 8.18772H6.58956C6.5272 8.42926 6.38632 8.64322 6.18909 8.79595C5.99186 8.94869 5.74946 9.03154 5.5 9.03147ZM9.28169 2.04747C9.34375 2.00873 9.41847 1.99569 9.48998 2.01113C9.5615 2.02657 9.62419 2.06927 9.66474 2.13017C9.70529 2.19106 9.72051 2.26537 9.70717 2.33731C9.69384 2.40924 9.653 2.47315 9.59331 2.51547L8.74956 3.07797C8.6875 3.11672 8.61278 3.12976 8.54127 3.11432C8.46975 3.09888 8.40706 3.05618 8.36651 2.99528C8.32596 2.93438 8.31074 2.86008 8.32408 2.78814C8.33741 2.7162 8.37825 2.65229 8.43794 2.60997L9.28169 2.04747ZM1 4.53147C1 4.45688 1.02963 4.38534 1.08238 4.3326C1.13512 4.27986 1.20666 4.25022 1.28125 4.25022H2.125C2.19959 4.25022 2.27113 4.27986 2.32387 4.3326C2.37662 4.38534 2.40625 4.45688 2.40625 4.53147C2.40625 4.60607 2.37662 4.6776 2.32387 4.73035C2.27113 4.78309 2.19959 4.81272 2.125 4.81272H1.28125C1.20666 4.81272 1.13512 4.78309 1.08238 4.73035C1.02963 4.6776 1 4.60607 1 4.53147ZM9.71875 4.25022C9.79334 4.25022 9.86488 4.27986 9.91762 4.3326C9.97037 4.38534 10 4.45688 10 4.53147C10 4.60607 9.97037 4.6776 9.91762 4.73035C9.86488 4.78309 9.79334 4.81272 9.71875 4.81272H8.875C8.80041 4.81272 8.72887 4.78309 8.67613 4.73035C8.62338 4.6776 8.59375 4.60607 8.59375 4.53147C8.59375 4.45688 8.62338 4.38534 8.67613 4.3326C8.72887 4.27986 8.80041 4.25022 8.875 4.25022H9.71875Z" fill="white"/>
</svg>
