<svg width="16" height="16" viewBox="0 0 16 16" fill="none" xmlns="http://www.w3.org/2000/svg">
<path d="M5.56786 13.4946C6.12859 14.2073 7.00946 14.6667 8 14.6667C8.99055 14.6667 9.87142 14.2073 10.4321 13.4946C8.81762 13.7133 7.18238 13.7133 5.56786 13.4946Z" fill="#FFB531"/>
<path fill-rule="evenodd" clip-rule="evenodd" d="M12.4994 6.4694V6C12.4994 3.42267 10.485 1.33334 8 1.33334C5.51504 1.33334 3.50058 3.42267 3.50058 6V6.4694C3.50058 7.03273 3.33981 7.58345 3.03853 8.05217L2.30024 9.20077C1.62588 10.2499 2.1407 11.6759 3.31357 12.0077C6.38183 12.8756 9.61817 12.8756 12.6864 12.0077C13.8593 11.6759 14.3741 10.2499 13.6998 9.20077L12.9615 8.05217C12.6602 7.58345 12.4994 7.03273 12.4994 6.4694ZM8 3.5C8.27614 3.5 8.5 3.72386 8.5 4V6.66667C8.5 6.94281 8.27614 7.16667 8 7.16667C7.72386 7.16667 7.5 6.94281 7.5 6.66667V4C7.5 3.72386 7.72386 3.5 8 3.5Z" fill="#FFB531"/>
</svg>
