<svg width="34" height="34" viewBox="0 0 34 34" fill="none" xmlns="http://www.w3.org/2000/svg">
<path fill-rule="evenodd" clip-rule="evenodd" d="M29.75 15.7214V22.7954C29.75 27.1822 29.75 29.3756 28.71 30.334C28.214 30.7911 27.588 31.0783 26.921 31.1546C25.5226 31.3146 23.8896 29.8702 20.6236 26.9815C19.1799 25.7046 18.4581 25.0662 17.6229 24.8979C17.2117 24.8151 16.7883 24.8151 16.3771 24.8979C15.5419 25.0662 14.8201 25.7046 13.3764 26.9815C10.1104 29.8702 8.47736 31.3146 7.07896 31.1546C6.41204 31.0783 5.78597 30.7911 5.28998 30.334C4.25 29.3756 4.25 27.1822 4.25 22.7954V15.7214C4.25 9.64587 4.25 6.6081 6.11719 4.72068C7.98439 2.83325 10.9896 2.83325 17 2.83325C23.0104 2.83325 26.0156 2.83325 27.8828 4.72068C29.75 6.6081 29.75 9.64587 29.75 15.7214ZM11.6875 8.49992C11.6875 7.91312 12.1632 7.43742 12.75 7.43742H21.25C21.8368 7.43742 22.3125 7.91312 22.3125 8.49992C22.3125 9.08672 21.8368 9.56242 21.25 9.56242H12.75C12.1632 9.56242 11.6875 9.08672 11.6875 8.49992Z" fill="#E6F1F1"/>
</svg>
