<svg width="34" height="34" viewBox="0 0 34 34" fill="none" xmlns="http://www.w3.org/2000/svg">
<path d="M22.765 14.0983C24.6484 14.0983 26.2533 14.0982 27.5343 14.2432C27.7518 14.2678 27.9685 14.2973 28.1837 14.3334C28.9374 14.4599 29.6717 14.6671 30.351 15.0256V13.8206C30.351 12.533 30.351 11.4647 30.2302 10.613C30.1026 9.71405 29.8245 8.91724 29.1599 8.26256C29.0515 8.15577 28.937 8.05441 28.8171 7.95884C28.092 7.38108 27.223 7.1448 26.2391 7.0352C25.2911 6.92962 24.097 6.92964 22.6333 6.92966L22.1336 6.92966C20.7423 6.92966 20.2435 6.92157 19.7917 6.80746C19.5263 6.74045 19.2716 6.64685 19.0326 6.52902C18.6299 6.33054 18.279 6.03154 17.2935 5.15845L16.6219 4.5634C16.3399 4.31351 16.1475 4.14295 15.9412 3.99145C15.0563 3.34153 13.9787 2.94845 12.8505 2.85498C12.5879 2.83322 12.3198 2.83324 11.9185 2.83327L11.7536 2.83326C10.846 2.83311 10.247 2.83301 9.72689 2.91995C7.45336 3.3 5.61488 4.88944 5.16707 6.99222C5.06519 7.47063 5.06535 8.01874 5.06559 8.8095L5.06561 15.0256C5.74491 14.6671 6.47923 14.4599 7.23293 14.3334C7.44806 14.2973 7.66478 14.2678 7.88225 14.2432C9.16331 14.0982 10.7682 14.0983 12.6516 14.0983H22.765Z" fill="white"/>
<path fill-rule="evenodd" clip-rule="evenodd" d="M4.75705 18.1032C3.89261 19.4369 4.24937 21.2913 4.9629 25C5.47656 27.6698 5.73338 29.0047 6.62324 29.8905C6.85412 30.1204 7.11244 30.3241 7.39301 30.4977C8.47442 31.1666 9.91013 31.1666 12.7815 31.1666H22.6351C25.5065 31.1666 26.9422 31.1666 28.0237 30.4977C28.3042 30.3241 28.5625 30.1204 28.7934 29.8905C29.6833 29.0047 29.9401 27.6698 30.4538 25C31.1673 21.2913 31.5241 19.4369 30.6596 18.1032C30.439 17.7629 30.167 17.4548 29.8521 17.1888C28.6183 16.1465 26.6239 16.1465 22.6351 16.1465H12.7815C8.79279 16.1465 6.79841 16.1465 5.56455 17.1888C5.24969 17.4548 4.97764 17.7629 4.75705 18.1032ZM13.7348 24.3393C13.7348 23.7737 14.22 23.3152 14.8185 23.3152H20.598C21.1965 23.3152 21.6817 23.7737 21.6817 24.3393C21.6817 24.9049 21.1965 25.3634 20.598 25.3634H14.8185C14.22 25.3634 13.7348 24.9049 13.7348 24.3393Z" fill="white"/>
</svg>
