<svg width="34" height="34" viewBox="0 0 34 34" fill="none" xmlns="http://www.w3.org/2000/svg">
<path fill-rule="evenodd" clip-rule="evenodd" d="M6.25288 25.3003C6.75979 25.0047 7.41036 25.176 7.70596 25.6829C8.87735 27.6917 10.6681 29.2108 12.8766 30.1964C13.4124 30.4356 13.6529 31.0639 13.4138 31.5997C13.1746 32.1356 12.5463 32.3761 12.0105 32.1369C9.44417 30.9915 7.29112 29.1899 5.87027 26.7534C5.57467 26.2465 5.74597 25.5959 6.25288 25.3003Z" fill="#111212"/>
<path fill-rule="evenodd" clip-rule="evenodd" d="M26.7832 5.55612C25.3468 4.0892 23.2984 3.54811 21.293 4.11871C20.7286 4.2793 20.1409 3.95195 19.9803 3.38755C19.8197 2.82316 20.1471 2.23543 20.7115 2.07484C23.4572 1.29356 26.3139 2.03947 28.3015 4.06942C28.7121 4.48869 28.705 5.16139 28.2857 5.57193C27.8664 5.98248 27.1937 5.9754 26.7832 5.55612Z" fill="#111212"/>
<path fill-rule="evenodd" clip-rule="evenodd" d="M15.8527 4.68692C15.5495 4.1669 14.6657 3.85153 13.768 4.36458C12.8736 4.87575 12.7163 5.7768 13.0143 6.28778L16.5923 12.4235C16.8879 12.9304 16.7166 13.581 16.2097 13.8766C15.7028 14.1722 15.0522 14.0009 14.7566 13.494L9.98591 5.31299C9.68267 4.79297 8.79893 4.47759 7.90123 4.99064C7.00681 5.50182 6.8495 6.40287 7.14747 6.91385L12.5145 16.1175C12.8101 16.6244 12.6388 17.2749 12.1319 17.5705C11.625 17.8661 10.9744 17.6948 10.6788 17.1879L8.29347 13.0974C7.99022 12.5774 7.10649 12.262 6.20878 12.7751C5.31436 13.2863 5.15705 14.1873 5.45502 14.6983L10.822 23.9019C13.1014 27.8106 18.7261 29.0791 23.4959 26.353C28.2625 23.6289 29.9569 18.1868 27.6829 14.2871L24.1049 8.15136C23.8016 7.63133 22.9179 7.31596 22.0202 7.82901C21.1257 8.34018 20.9684 9.24124 21.2664 9.75221L23.6517 13.8427C23.7945 14.0875 23.8336 14.3792 23.7602 14.653C23.6868 14.9267 23.5072 15.1598 23.2611 15.3004C21.076 16.5493 20.4063 18.964 21.363 20.6045C21.6586 21.1114 21.4873 21.762 20.9804 22.0576C20.4734 22.3532 19.8229 22.1819 19.5273 21.675C18.2343 19.4577 18.7567 16.7877 20.4268 14.9006C20.8937 14.3731 21.0536 13.6056 20.6987 12.9971L15.8527 4.68692Z" fill="#111212"/>
</svg>
