<svg width="34" height="34" viewBox="0 0 34 34" fill="none" xmlns="http://www.w3.org/2000/svg">
<path fill-rule="evenodd" clip-rule="evenodd" d="M10.8611 10.3133C10.8611 8.12965 11.4939 6.63086 12.4655 5.67585C13.4412 4.71674 14.8983 4.16867 16.8148 4.16867C19.2236 4.16867 20.9186 5.02779 21.8563 6.54606C22.1709 7.05546 22.8385 7.21313 23.3474 6.89824C23.8563 6.58335 24.0139 5.91514 23.6993 5.40574C22.2647 3.08286 19.7573 2 16.8148 2C14.4915 2 12.4302 2.67094 10.9473 4.12856C9.46028 5.59029 8.69444 7.70595 8.69444 10.3133V10.7314C5.97317 11.7409 4 14.4674 4 17.6856C4 23.2349 8.28764 26.4361 11.9382 29.1616C12.3176 29.4448 12.6901 29.723 13.0503 29.9981C14.4 31.0292 15.7 32 17 32C18.3 32 19.6 31.0292 20.9497 29.9981C21.3099 29.723 21.6824 29.4448 22.0618 29.1616C25.7124 26.4361 30 23.2349 30 17.6856C30 11.5595 22.8498 7.21496 17 13.1045C14.993 11.0839 12.833 10.2679 10.8611 10.3152V10.3133ZM17 16.4578C17.5983 16.4578 18.0833 16.9433 18.0833 17.5422V21.1566C18.0833 21.7555 17.5983 22.241 17 22.241C16.4017 22.241 15.9167 21.7555 15.9167 21.1566V17.5422C15.9167 16.9433 16.4017 16.4578 17 16.4578Z" fill="#111212"/>
</svg>
