<svg width="34" height="34" viewBox="0 0 34 34" fill="none" xmlns="http://www.w3.org/2000/svg">
<path fill-rule="evenodd" clip-rule="evenodd" d="M10.25 15.8046V13.75C10.25 10.0221 13.2721 7 17 7C20.7279 7 23.75 10.0221 23.75 13.75V15.8046C24.8648 15.8879 25.5907 16.098 26.1213 16.6287C27 17.5074 27 18.9216 27 21.75C27 24.5784 27 25.9926 26.1213 26.8713C25.2426 27.75 23.8284 27.75 21 27.75H13C10.1716 27.75 8.75736 27.75 7.87868 26.8713C7 25.9926 7 24.5784 7 21.75C7 18.9216 7 17.5074 7.87868 16.6287C8.40931 16.098 9.13525 15.8879 10.25 15.8046ZM11.75 13.75C11.75 10.8505 14.1005 8.5 17 8.5C19.8995 8.5 22.25 10.8505 22.25 13.75V15.7536C21.867 15.75 21.4515 15.75 21 15.75H13C12.5485 15.75 12.133 15.75 11.75 15.7536V13.75ZM19 21.75C19 22.8546 18.1046 23.75 17 23.75C15.8954 23.75 15 22.8546 15 21.75C15 20.6454 15.8954 19.75 17 19.75C18.1046 19.75 19 20.6454 19 21.75Z" fill="white"/>
</svg>
