<svg width="34" height="34" viewBox="0 0 34 34" fill="none" xmlns="http://www.w3.org/2000/svg">
<path fill-rule="evenodd" clip-rule="evenodd" d="M16.6851 6C17.8591 6 18.9633 6.30658 19.9135 6.84416C20.0421 6.9098 20.1557 7.00014 20.2476 7.10974C20.3395 7.21935 20.4077 7.34596 20.4482 7.48196C20.4886 7.61796 20.5004 7.76053 20.4829 7.90111C20.4654 8.04168 20.419 8.17734 20.3463 8.29994C20.2737 8.42254 20.1764 8.52953 20.0603 8.61449C19.9442 8.69945 19.8116 8.76061 19.6707 8.7943C19.5297 8.82799 19.3832 8.83351 19.24 8.81053C19.0968 8.78754 18.9598 8.73653 18.8373 8.66057C18.1828 8.29187 17.4404 8.09781 16.6846 8.0979C15.9288 8.09799 15.1864 8.29222 14.532 8.66107C13.8775 9.02991 13.3342 9.56037 12.9565 10.1991C12.5789 10.8378 12.3803 11.5623 12.3806 12.2997L24.218 12.3007C24.7888 12.3007 25.3362 12.522 25.7398 12.9158C26.1434 13.3096 26.3702 13.8437 26.3702 14.4006V24.9001C26.3702 25.457 26.1434 25.9911 25.7398 26.385C25.3362 26.7788 24.7888 27 24.218 27H9.15224C8.58143 27 8.034 26.7788 7.63038 26.385C7.22675 25.9911 7 25.457 7 24.9001V14.3996C7 13.8427 7.22675 13.3085 7.63038 12.9147C8.034 12.5209 8.58143 12.2997 9.15224 12.2997H10.2284C10.2284 10.6289 10.9086 9.02656 12.1195 7.84514C13.3304 6.66371 14.9727 6 16.6851 6ZM16.6851 16.4995C16.2113 16.4995 15.7508 16.652 15.375 16.9334C14.9991 17.2148 14.7289 17.6094 14.6063 18.0559C14.4837 18.5024 14.5155 18.9759 14.6968 19.4029C14.878 19.83 15.1987 20.1867 15.609 20.4179V21.7492C15.609 22.0277 15.7224 22.2947 15.9242 22.4916C16.126 22.6885 16.3997 22.7992 16.6851 22.7992C16.9705 22.7992 17.2442 22.6885 17.446 22.4916C17.6478 22.2947 17.7612 22.0277 17.7612 21.7492V20.4179C18.1715 20.1867 18.4922 19.83 18.6734 19.4029C18.8547 18.9759 18.8865 18.5024 18.7639 18.0559C18.6413 17.6094 18.3711 17.2148 17.9952 16.9334C17.6194 16.652 17.1589 16.4995 16.6851 16.4995ZM25.2058 9.17189L26.2454 9.44488C26.5104 9.52583 26.7331 9.70364 26.8669 9.94111C27.0007 10.1786 27.0352 10.4573 26.9632 10.719C26.8912 10.9808 26.7183 11.2052 26.4806 11.3454C26.2429 11.4856 25.9589 11.5307 25.6879 11.4713L24.6495 11.2004C24.375 11.1274 24.1413 10.9513 23.9995 10.7106C23.8577 10.4699 23.8194 10.1842 23.893 9.91599C23.9665 9.64781 24.1459 9.41897 24.392 9.27952C24.638 9.14008 24.9306 9.10138 25.2058 9.17189ZM23.823 6.0945C23.9595 6.13019 24.0875 6.19178 24.1996 6.27574C24.3118 6.3597 24.4058 6.46439 24.4765 6.58382C24.5471 6.70326 24.593 6.83511 24.6114 6.97183C24.6298 7.10856 24.6205 7.24749 24.5838 7.38068L24.445 7.88676C24.409 8.02051 24.3463 8.14601 24.2604 8.25605C24.1746 8.36609 24.0673 8.45849 23.9447 8.52796C23.8222 8.59742 23.6867 8.64258 23.5462 8.66083C23.4057 8.67909 23.2629 8.67008 23.126 8.63433C22.9891 8.59859 22.8607 8.5368 22.7484 8.45252C22.636 8.36824 22.5418 8.26313 22.4712 8.14322C22.4005 8.02332 22.3549 7.89099 22.3368 7.75382C22.3188 7.61665 22.3287 7.47736 22.3659 7.34393L22.5058 6.83681C22.5797 6.56803 22.76 6.33887 23.007 6.19968C23.254 6.06049 23.5475 6.02266 23.823 6.0945Z" fill="white"/>
</svg>
