<svg width="34" height="34" viewBox="0 0 34 34" fill="none" xmlns="http://www.w3.org/2000/svg">
<path fill-rule="evenodd" clip-rule="evenodd" d="M14.1665 7.88916H19.8332C23.8401 7.88916 25.8436 7.88916 27.0884 9.13396C28.3332 10.3788 28.3332 12.3822 28.3332 16.3892V17.8848C28.3332 21.2928 28.3332 22.9967 27.4869 24.3661C26.6405 25.7355 25.1164 26.4975 22.0683 28.0216C19.5811 29.2652 18.3376 29.887 16.9998 29.887C15.6621 29.887 14.4185 29.2652 11.9314 28.0216C8.88322 26.4975 7.35913 25.7355 6.51282 24.3661C5.6665 22.9967 5.6665 21.2928 5.6665 17.8848V16.3892C5.6665 12.3822 5.6665 10.3788 6.9113 9.13396C8.1561 7.88916 10.1596 7.88916 14.1665 7.88916ZM16.9998 13.5558C16.5974 13.5558 16.3283 14.0387 15.7899 15.0044L15.6507 15.2542C15.4977 15.5286 15.4212 15.6659 15.3019 15.7564C15.1827 15.8469 15.0341 15.8805 14.7371 15.9477L14.4666 16.0089C13.4213 16.2455 12.8986 16.3637 12.7742 16.7636C12.6499 17.1635 13.0062 17.5802 13.7189 18.4135L13.9033 18.6291C14.1058 18.866 14.207 18.9844 14.2526 19.1309C14.2981 19.2773 14.2828 19.4353 14.2522 19.7513L14.2243 20.0389C14.1166 21.1508 14.0627 21.7068 14.3883 21.9539C14.7138 22.2011 15.2032 21.9757 16.182 21.5251L16.4352 21.4085C16.7134 21.2804 16.8524 21.2164 16.9998 21.2164C17.1473 21.2164 17.2863 21.2804 17.5645 21.4085L17.8177 21.5251C18.7964 21.9757 19.2858 22.2011 19.6114 21.9539C19.937 21.7068 19.8831 21.1508 19.7753 20.0389L19.7475 19.7513C19.7169 19.4353 19.7015 19.2773 19.7471 19.1309C19.7926 18.9844 19.8939 18.866 20.0964 18.6292L20.2808 18.4135C20.9935 17.5802 21.3498 17.1635 21.2254 16.7636C21.1011 16.3637 20.5784 16.2455 19.533 16.0089L19.2626 15.9477C18.9655 15.8805 18.817 15.8469 18.6977 15.7564C18.5785 15.6659 18.502 15.5286 18.349 15.2542L18.2097 15.0044C17.6714 14.0387 17.4023 13.5558 16.9998 13.5558Z" fill="white"/>
<path d="M15.5832 2.83325H18.4165C21.0878 2.83325 22.4235 2.83325 23.2533 3.66312C23.8397 4.24946 24.0117 5.08831 24.0622 6.47237C22.8994 6.37476 21.5246 6.37484 19.9731 6.37492H14.0266C12.4751 6.37484 11.1004 6.37476 9.9375 6.47238C9.98799 5.08831 10.16 4.24946 10.7464 3.66312C11.5763 2.83325 12.9119 2.83325 15.5832 2.83325Z" fill="white"/>
</svg>
