<svg width="34" height="34" viewBox="0 0 34 34" fill="none" xmlns="http://www.w3.org/2000/svg">
<path fill-rule="evenodd" clip-rule="evenodd" d="M19.0277 8.33942C17.7642 7.65045 16.2372 7.65045 14.9737 8.33942L8.20714 12.029C6.84658 12.7709 6 14.1968 6 15.7465V22.7154C6 24.2651 6.84658 25.691 8.20714 26.4329L14.9737 30.1225C16.2372 30.8114 17.7642 30.8114 19.0277 30.1225L25.7942 26.4329C27.1548 25.691 28.0014 24.2651 28.0014 22.7154V15.7465C28.0014 14.1968 27.1548 12.7709 25.7942 12.029L19.0277 8.33942ZM17.001 14.9968C16.6001 14.9968 16.3319 15.4779 15.7956 16.44L15.6568 16.6889C15.5044 16.9623 15.4282 17.099 15.3094 17.1892C15.1906 17.2794 15.0426 17.3128 14.7467 17.3798L14.4772 17.4408C13.4358 17.6764 12.915 17.7942 12.7911 18.1926C12.6672 18.591 13.0222 19.0062 13.7322 19.8364L13.9159 20.0512C14.1177 20.2872 14.2186 20.4051 14.264 20.5511C14.3093 20.697 14.2941 20.8544 14.2636 21.1692L14.2358 21.4558C14.1285 22.5635 14.0748 23.1174 14.3991 23.3636C14.7235 23.6098 15.2111 23.3853 16.1862 22.9364L16.4385 22.8202C16.7156 22.6926 16.8541 22.6288 17.001 22.6288C17.1478 22.6288 17.2864 22.6926 17.5635 22.8202L17.8158 22.9364C18.7909 23.3853 19.2785 23.6098 19.6028 23.3636C19.9272 23.1174 19.8735 22.5635 19.7662 21.4558L19.7384 21.1692C19.7079 20.8544 19.6926 20.697 19.738 20.5511C19.7834 20.4051 19.8843 20.2872 20.086 20.0512L20.2697 19.8364C20.9797 19.0062 21.3347 18.591 21.2108 18.1926C21.0869 17.7942 20.5662 17.6764 19.5247 17.4408L19.2553 17.3798C18.9593 17.3128 18.8114 17.2794 18.6926 17.1892C18.5737 17.099 18.4975 16.9623 18.3451 16.6889L18.2064 16.44C17.6701 15.4779 17.4019 14.9968 17.001 14.9968Z" fill="#111212"/>
<path d="M15.5899 3H18.4127C21.074 3 22.4047 3 23.2315 3.82677C24.0582 4.65355 24.0582 5.98422 24.0582 8.64556V8.67092L20.0415 6.48072C18.1462 5.44726 15.8558 5.44726 13.9605 6.48072L9.94434 8.67061V8.64556C9.94434 5.98422 9.94434 4.65355 10.7711 3.82677C11.5979 3 12.9286 3 15.5899 3Z" fill="#111212"/>
</svg>
