<svg width="32" height="32" viewBox="0 0 32 32" fill="none" xmlns="http://www.w3.org/2000/svg">
<path d="M3.6731 19.6214L4.36328 22.1972C5.16895 25.204 5.57178 26.7073 6.48501 27.6824C7.20609 28.4523 8.13927 28.991 9.16654 29.2306C10.4676 29.5339 11.971 29.1311 14.9777 28.3254C17.9845 27.5198 19.4879 27.1169 20.4629 26.2037C20.5439 26.1279 20.6222 26.0498 20.698 25.9694C20.2524 25.932 19.803 25.8603 19.3462 25.7695C18.4181 25.585 17.3152 25.2894 16.011 24.9399L15.8686 24.9018L15.8356 24.893C14.4164 24.5127 13.2307 24.1944 12.284 23.8524C11.2884 23.4927 10.3838 23.0493 9.61563 22.3299C8.55704 21.3384 7.81623 20.0553 7.48688 18.6427C7.24788 17.6178 7.31621 16.6126 7.50254 15.5706C7.6811 14.572 8.00178 13.3753 8.38599 11.9416L8.386 11.9415L9.09853 9.28236L9.12359 9.18884C6.56286 9.87866 5.21501 10.2868 4.31615 11.1286C3.54626 11.8497 3.00749 12.7829 2.76796 13.8102C2.4646 15.1112 2.86744 16.6146 3.6731 19.6214Z" fill="#111212"/>
<path fill-rule="evenodd" clip-rule="evenodd" d="M27.772 14.2872L27.0818 16.863C26.2762 19.8698 25.8733 21.3732 24.9601 22.3482C24.239 23.1181 23.3058 23.6569 22.2786 23.8964C22.1502 23.9263 22.0199 23.9494 21.8863 23.9658C20.6663 24.1163 19.1775 23.7174 16.4674 22.9912C13.4606 22.1856 11.9572 21.7828 10.9822 20.8695C10.2123 20.1484 9.67351 19.2153 9.43398 18.188C9.13062 16.887 9.53345 15.3836 10.3391 12.3768L11.0293 9.80099C11.1451 9.36868 11.2527 8.96716 11.3546 8.59411C11.9614 6.37272 12.3691 5.1506 13.151 4.31578C13.8721 3.5459 14.8053 3.00712 15.8326 2.7676C17.1336 2.46424 18.637 2.86707 21.6438 3.67273C24.6505 4.4784 26.1539 4.88123 27.129 5.79446C27.8988 6.51554 28.4376 7.44872 28.6771 8.47599C28.9805 9.77703 28.5777 11.2804 27.772 14.2872ZM14.7362 13.0745C14.8792 12.541 15.4275 12.2244 15.961 12.3674L22.4005 14.0928C22.9339 14.2358 23.2505 14.7841 23.1076 15.3176C22.9646 15.851 22.4163 16.1676 21.8828 16.0247L15.4433 14.2992C14.9099 14.1563 14.5933 13.6079 14.7362 13.0745ZM13.7004 16.9378C13.8434 16.4043 14.3917 16.0877 14.9252 16.2306L18.7889 17.2659C19.3223 17.4089 19.6389 17.9572 19.496 18.4907C19.353 19.0241 18.8047 19.3407 18.2712 19.1978L14.4075 18.1625C13.8741 18.0196 13.5575 17.4712 13.7004 16.9378Z" fill="#111212"/>
</svg>
