<svg width="34" height="34" viewBox="0 0 34 34" fill="none" xmlns="http://www.w3.org/2000/svg">
<path d="M8.81479 6.51819C9.44458 6.09737 10.1059 5.73238 10.7911 5.42553C12.7345 4.55517 13.7063 4.11999 14.9991 4.95753C16.2918 5.79507 16.2918 7.16895 16.2918 9.91672V12.0417C16.2918 14.713 16.2918 16.0487 17.1217 16.8785C17.9516 17.7084 19.2872 17.7084 21.9585 17.7084H24.0835C26.8313 17.7084 28.2051 17.7084 29.0427 19.0012C29.8802 20.2939 29.445 21.2657 28.5747 23.2092C28.2678 23.8943 27.9028 24.5556 27.482 25.1854C26.0032 27.3986 23.9013 29.1236 21.4421 30.1423C18.9829 31.1609 16.2769 31.4274 13.6662 30.9081C11.0556 30.3888 8.65754 29.107 6.77536 27.2249C4.89318 25.3427 3.61139 22.9446 3.0921 20.334C2.57281 17.7233 2.83933 15.0173 3.85796 12.5581C4.87659 10.0989 6.60157 7.99701 8.81479 6.51819Z" fill="white"/>
<path d="M30.382 10.0145C29.232 7.09519 26.9051 4.76828 23.9858 3.61822C21.8019 2.75789 19.8335 4.73623 19.8335 7.08344V12.7501C19.8335 13.5325 20.4678 14.1668 21.2502 14.1668H26.9168C29.264 14.1668 31.2424 12.1984 30.382 10.0145Z" fill="white"/>
</svg>
