<svg width="34" height="34" viewBox="0 0 34 34" fill="none" xmlns="http://www.w3.org/2000/svg">
<path d="M27.0567 11.1272L22.9062 6.97257C20.0688 4.13245 18.6502 2.7124 17.1265 3.04856C15.6028 3.38472 14.9119 5.27017 13.5303 9.04107L12.5951 11.5933C12.2268 12.5986 12.0426 13.1013 11.7113 13.4901C11.5626 13.6645 11.3934 13.8204 11.2074 13.9543C10.793 14.2527 10.2773 14.3948 9.24597 14.6792C6.92146 15.32 5.75921 15.6404 5.32124 16.4009C5.1319 16.7296 5.03337 17.1029 5.03577 17.4823C5.04131 18.3601 5.89375 19.2134 7.59862 20.9199L9.57903 22.9027L3.31283 29.1749C2.89572 29.5924 2.89572 30.2694 3.31283 30.6869C3.72993 31.1044 4.40619 31.1044 4.82329 30.6869L11.0897 24.4144L13.1421 26.4689C14.8578 28.1863 15.7157 29.045 16.5986 29.0463C16.9707 29.0468 17.3365 28.9501 17.6597 28.7656C18.4268 28.3279 18.7489 27.1571 19.3932 24.8155C19.6765 23.786 19.8181 23.2712 20.1154 22.8569C20.2456 22.6755 20.3966 22.51 20.5653 22.3639C20.9507 22.0302 21.4501 21.8425 22.4489 21.4673L25.0305 20.4974C28.7598 19.0962 30.6245 18.3956 30.9531 16.876C31.2817 15.3564 29.8734 13.9466 27.0567 11.1272Z" fill="#111212"/>
</svg>
