<svg width="20" height="20" viewBox="0 0 20 20" fill="none" xmlns="http://www.w3.org/2000/svg">
<path fill-rule="evenodd" clip-rule="evenodd" d="M10 2C5.5816 2 2 5.5816 2 10C2 11.512 2.42 12.928 3.1504 14.1344L2.4368 16.56C2.39583 16.6993 2.39313 16.847 2.429 16.9877C2.46486 17.1283 2.53796 17.2567 2.64061 17.3594C2.74326 17.462 2.87166 17.5351 3.01233 17.571C3.153 17.6069 3.30073 17.6042 3.44 17.5632L5.8656 16.8496C7.11254 17.6041 8.54258 18.002 10 18C14.4184 18 18 14.4184 18 10C18 5.5816 14.4184 2 10 2ZM8.1904 11.8104C9.8088 13.428 11.3536 13.6416 11.8992 13.6616C12.7288 13.692 13.5368 13.0584 13.8512 12.3232C13.8909 12.2317 13.9053 12.1313 13.8929 12.0324C13.8805 11.9334 13.8418 11.8397 13.7808 11.7608C13.3424 11.2008 12.7496 10.7984 12.1704 10.3984C12.0495 10.3148 11.9009 10.2812 11.7557 10.3048C11.6106 10.3284 11.4803 10.4072 11.392 10.5248L10.912 11.2568C10.8868 11.2961 10.8474 11.3244 10.8021 11.3357C10.7567 11.347 10.7088 11.3405 10.668 11.3176C10.3424 11.1312 9.868 10.8144 9.5272 10.4736C9.1864 10.1328 8.8888 9.68 8.7216 9.3752C8.70087 9.33647 8.69488 9.29155 8.70473 9.24874C8.71459 9.20594 8.73962 9.16816 8.7752 9.1424L9.5144 8.5936C9.61989 8.50187 9.68797 8.37456 9.70567 8.23589C9.72338 8.09722 9.68947 7.95688 9.6104 7.8416C9.252 7.3168 8.8344 6.6496 8.2288 6.2072C8.15064 6.15056 8.05909 6.11525 7.96315 6.10473C7.8672 6.09421 7.77017 6.10884 7.6816 6.1472C6.9456 6.4624 6.3088 7.2704 6.3392 8.1016C6.3592 8.6472 6.5728 10.192 8.1904 11.8104Z" fill="#41DE6D"/>
</svg>
