<svg width="30" height="30" viewBox="0 0 30 30" fill="none" xmlns="http://www.w3.org/2000/svg">
<path d="M12.6002 9.8714C13.9461 7.45713 14.619 6.25 15.625 6.25C16.631 6.25 17.304 7.45713 18.6498 9.8714L18.9979 10.496C19.3804 11.1821 19.5716 11.5251 19.8698 11.7514C20.1679 11.9778 20.5392 12.0618 21.2819 12.2298L21.958 12.3828C24.5714 12.9741 25.8781 13.2697 26.189 14.2695C26.4999 15.2692 25.6091 16.3109 23.8274 18.3943L23.3665 18.9333C22.8602 19.5253 22.607 19.8214 22.4931 20.1876C22.3793 20.5538 22.4175 20.9487 22.4941 21.7387L22.5638 22.4578C22.8331 25.2375 22.9678 26.6274 22.1539 27.2452C21.34 27.8631 20.1165 27.2998 17.6696 26.1731L17.0365 25.8816C16.3412 25.5615 15.9935 25.4014 15.625 25.4014C15.2565 25.4014 14.9088 25.5615 14.2135 25.8816L13.5804 26.1731C11.1335 27.2998 9.91 27.8631 9.0961 27.2452C8.28219 26.6274 8.41687 25.2375 8.68623 22.4578L8.75592 21.7387C8.83247 20.9487 8.87074 20.5538 8.75685 20.1876C8.64297 19.8214 8.38983 19.5253 7.88354 18.9333L7.4226 18.3943C5.64095 16.3109 4.75013 15.2692 5.06101 14.2695C5.37189 13.2697 6.6786 12.9741 9.29201 12.3828L9.96813 12.2298C10.7108 12.0618 11.0821 11.9778 11.3803 11.7514C11.6784 11.5251 11.8696 11.1821 12.2521 10.496L12.6002 9.8714Z" fill="#111212"/>
<path d="M6.08367 3.12548C6.12116 2.99325 6.35586 2.99246 6.39424 3.12443C6.5695 3.72707 6.89446 4.61784 7.38587 5.10594C7.87728 5.59404 8.77022 5.91298 9.37403 6.08416C9.50626 6.12164 9.50705 6.35635 9.37508 6.39473C8.77244 6.56999 7.88167 6.89495 7.39357 7.38636C6.90548 7.87777 6.58654 8.77071 6.41536 9.37452C6.37787 9.50675 6.14316 9.50754 6.10478 9.37557C5.92953 8.77293 5.60456 7.88216 5.11315 7.39406C4.62175 6.90596 3.7288 6.58702 3.12499 6.41584C2.99276 6.37836 2.99197 6.14365 3.12394 6.10527C3.72658 5.93002 4.61735 5.60505 5.10545 5.11364C5.59355 4.62224 5.91249 3.72929 6.08367 3.12548Z" fill="#111212"/>
<path fill-rule="evenodd" clip-rule="evenodd" d="M23.75 4.0625C24.2678 4.0625 24.6875 4.48223 24.6875 5V5.3125H25C25.5178 5.3125 25.9375 5.73223 25.9375 6.25C25.9375 6.76777 25.5178 7.1875 25 7.1875H24.6875V7.5C24.6875 8.01777 24.2678 8.4375 23.75 8.4375C23.2322 8.4375 22.8125 8.01777 22.8125 7.5V7.1875H22.5C21.9822 7.1875 21.5625 6.76777 21.5625 6.25C21.5625 5.73223 21.9822 5.3125 22.5 5.3125H22.8125V5C22.8125 4.48223 23.2322 4.0625 23.75 4.0625Z" fill="#111212"/>
</svg>
