<svg width="27" height="27" viewBox="0 0 27 27" fill="none" xmlns="http://www.w3.org/2000/svg">
<path fill-rule="evenodd" clip-rule="evenodd" d="M26 13.5C26 15.1415 25.6767 16.767 25.0485 18.2835C24.4203 19.8001 23.4996 21.1781 22.3388 22.3388C21.1781 23.4996 19.8001 24.4203 18.2835 25.0485C16.767 25.6767 15.1415 26 13.5 26C11.8585 26 10.233 25.6767 8.71646 25.0485C7.19989 24.4203 5.8219 23.4996 4.66116 22.3388C3.50043 21.1781 2.57969 19.8001 1.95151 18.2835C1.32332 16.767 1 15.1415 1 13.5C1 10.1848 2.31696 7.00537 4.66116 4.66117C7.00537 2.31696 10.1848 1 13.5 1C16.8152 1 19.9946 2.31696 22.3388 4.66117C24.683 7.00537 26 10.1848 26 13.5ZM14.1944 13.2125V6.51389C14.1944 6.32971 14.1213 6.15308 13.991 6.02284C13.8608 5.89261 13.6842 5.81944 13.5 5.81944C13.3158 5.81944 13.1392 5.89261 13.009 6.02284C12.8787 6.15308 12.8056 6.32971 12.8056 6.51389V13.4792C12.8024 13.5739 12.8188 13.6683 12.8537 13.7565C12.8886 13.8447 12.9412 13.9247 13.0083 13.9917L16.9375 17.9194C17.0016 17.9858 17.0782 18.0387 17.1629 18.0751C17.2476 18.1115 17.3388 18.1306 17.431 18.1314C17.5232 18.1322 17.6146 18.1147 17.7 18.0797C17.7853 18.0448 17.8628 17.9933 17.9281 17.9281C17.9933 17.8628 18.0448 17.7853 18.0797 17.7C18.1147 17.6146 18.1322 17.5232 18.1314 17.431C18.1306 17.3388 18.1115 17.2476 18.0751 17.1629C18.0387 17.0782 17.9858 17.0016 17.9194 16.9375L14.1944 13.2125Z" fill="white"/>
</svg>
