<svg width="169" height="169" viewBox="0 0 169 169" fill="none" xmlns="http://www.w3.org/2000/svg">
<path d="M85.2003 92.7632C84.8924 93.0999 84.4572 93.2917 84.001 93.2917C83.5448 93.2917 83.1095 93.0999 82.8017 92.7632L74.135 83.284C73.5294 82.6216 73.5755 81.5938 74.2378 80.9882C74.9002 80.3826 75.928 80.4286 76.5336 81.091L82.376 87.4811V63.5C82.376 62.6025 83.1035 61.875 84.001 61.875C84.8984 61.875 85.626 62.6025 85.626 63.5V87.4811L91.4684 81.091C92.0739 80.4286 93.1018 80.3826 93.7641 80.9882C94.4265 81.5938 94.4725 82.6216 93.8669 83.284L85.2003 92.7632Z" fill="white"/>
<path d="M66.126 89.5C66.126 88.6025 65.3984 87.875 64.501 87.875C63.6035 87.875 62.876 88.6025 62.876 89.5V89.6189C62.8759 92.582 62.8759 94.9704 63.1284 96.8488C63.3906 98.799 63.9516 100.441 65.2557 101.745C66.5599 103.049 68.202 103.61 70.1522 103.873C72.0306 104.125 74.419 104.125 77.3821 104.125H90.6199C93.583 104.125 95.9713 104.125 97.8498 103.873C99.8 103.61 101.442 103.049 102.746 101.745C104.05 100.441 104.611 98.799 104.874 96.8488C105.126 94.9704 105.126 92.582 105.126 89.6189V89.5C105.126 88.6025 104.398 87.875 103.501 87.875C102.604 87.875 101.876 88.6025 101.876 89.5C101.876 92.6101 101.873 94.7791 101.652 96.4157C101.439 98.0056 101.048 98.8475 100.448 99.4471C99.8485 100.047 99.0066 100.438 97.4167 100.652C95.7801 100.872 93.611 100.875 90.501 100.875H77.501C74.3909 100.875 72.2218 100.872 70.5852 100.652C68.9954 100.438 68.1535 100.047 67.5538 99.4471C66.9542 98.8475 66.5632 98.0056 66.3495 96.4157C66.1294 94.7791 66.126 92.6101 66.126 89.5Z" fill="white"/>
<path d="M153.985 92.8882C153.394 92.7849 152.878 92.5424 152.438 92.1607C152.005 91.7794 151.679 91.2944 151.461 90.7055C151.242 90.1233 151.155 89.4656 151.2 88.7324C151.252 87.9059 151.461 87.1895 151.827 86.5832C152.194 85.9835 152.679 85.5283 153.282 85.2175C153.893 84.9072 154.582 84.7757 155.352 84.8231C156.128 84.8709 156.796 85.086 157.357 85.4684C157.918 85.8508 158.342 86.3621 158.632 87.0022C158.921 87.6489 159.04 88.3855 158.988 89.212C158.943 89.9451 158.775 90.5872 158.486 91.1381C158.196 91.6956 157.813 92.137 157.336 92.4623C156.866 92.7879 156.328 92.9655 155.721 92.9951L155.78 92.0453C156.227 91.9925 156.619 91.8427 156.957 91.5959C157.301 91.3494 157.573 91.0183 157.774 90.6024C157.981 90.187 158.102 89.7027 158.136 89.1494C158.176 88.5029 158.087 87.9321 157.869 87.4369C157.651 86.9485 157.323 86.5602 156.884 86.2723C156.445 85.9843 155.915 85.8212 155.292 85.7829C154.677 85.745 154.133 85.842 153.662 86.0739C153.191 86.3058 152.814 86.6506 152.53 87.1082C152.253 87.5728 152.094 88.1284 152.054 88.7749C152.02 89.3282 152.076 89.8234 152.224 90.2607C152.378 90.6984 152.607 91.0604 152.912 91.3468C153.223 91.6336 153.601 91.8308 154.044 91.9384L153.985 92.8882Z" fill="white"/>
<path d="M150.9 93.5653L156.477 94.5371L156.317 95.4449L151.563 94.6164L151.711 94.3574L155.69 99.0168L155.505 100.073L150.753 94.404L150.9 93.5653ZM150.086 98.2029L153.192 96.8526L153.771 97.5637L149.895 99.2883L150.086 98.2029Z" fill="white"/>
<path d="M148.309 104.897L150.423 105.294L151.02 105.725L151.747 105.673L153.75 106.454L153.489 107.359L150.846 106.332L148.048 105.802L148.309 104.897ZM150.934 106.024C150.408 105.72 149.972 105.359 149.625 104.94C149.283 104.53 149.053 104.082 148.935 103.596C148.815 103.117 148.828 102.627 148.972 102.127C149.126 101.594 149.381 101.156 149.738 100.814C150.101 100.473 150.53 100.245 151.023 100.129C151.522 100.022 152.051 100.048 152.612 100.209C153.179 100.371 153.641 100.628 154 100.981C154.357 101.34 154.595 101.76 154.715 102.239C154.835 102.718 154.818 103.223 154.664 103.756C154.52 104.257 154.269 104.678 153.912 105.021C153.554 105.37 153.119 105.631 152.609 105.805C152.098 105.978 151.54 106.051 150.934 106.024ZM152.351 101.114C151.938 100.996 151.55 100.975 151.186 101.051C150.821 101.134 150.505 101.298 150.239 101.541C149.979 101.793 149.793 102.108 149.684 102.487C149.573 102.872 149.558 103.25 149.64 103.621C149.726 104 149.89 104.359 150.134 104.7C150.376 105.047 150.679 105.36 151.045 105.639C151.504 105.596 151.928 105.492 152.318 105.325C152.706 105.165 153.034 104.947 153.302 104.669C153.575 104.4 153.767 104.073 153.878 103.688C153.988 103.309 153.996 102.943 153.902 102.59C153.813 102.245 153.636 101.94 153.37 101.677C153.103 101.419 152.763 101.232 152.351 101.114Z" fill="white"/>
<path d="M148.428 109.955C148.718 109.25 149.127 108.793 149.656 108.583C150.19 108.375 150.83 108.424 151.574 108.728L152.83 109.24L152.479 110.093L151.251 109.592C150.209 109.166 149.488 109.439 149.089 110.409C148.927 110.804 148.859 111.206 148.887 111.614C148.918 112.031 149.045 112.462 149.268 112.907L148.562 112.694C148.323 112.308 148.189 111.874 148.162 111.394C148.141 110.917 148.23 110.437 148.428 109.955ZM145.838 111.365L151.076 113.504L150.725 114.357L145.487 112.218L145.838 111.365Z" fill="white"/>
<path d="M142.461 117.997L144.44 118.837L144.93 119.387L145.651 119.491L147.438 120.684L146.988 121.512L144.628 119.941L142.011 118.824L142.461 117.997ZM144.782 119.66C144.333 119.25 143.985 118.804 143.737 118.321C143.492 117.847 143.364 117.36 143.354 116.861C143.34 116.367 143.458 115.891 143.707 115.433C143.972 114.946 144.316 114.573 144.739 114.315C145.167 114.061 145.635 113.93 146.142 113.922C146.652 113.924 147.163 114.064 147.676 114.341C148.194 114.621 148.591 114.971 148.865 115.393C149.135 115.82 149.278 116.28 149.291 116.774C149.305 117.267 149.179 117.758 148.914 118.245C148.665 118.703 148.329 119.061 147.906 119.319C147.481 119.583 147 119.745 146.464 119.805C145.928 119.865 145.367 119.816 144.782 119.66ZM147.225 115.168C146.848 114.965 146.474 114.861 146.102 114.858C145.727 114.861 145.383 114.952 145.071 115.133C144.762 115.323 144.513 115.591 144.325 115.938C144.133 116.29 144.037 116.656 144.036 117.035C144.038 117.424 144.122 117.811 144.286 118.196C144.447 118.586 144.676 118.957 144.973 119.307C145.43 119.364 145.867 119.353 146.284 119.274C146.697 119.201 147.065 119.058 147.387 118.845C147.712 118.64 147.97 118.362 148.161 118.01C148.35 117.663 148.437 117.307 148.422 116.942C148.41 116.586 148.302 116.251 148.1 115.937C147.894 115.628 147.603 115.372 147.225 115.168Z" fill="white"/>
<path d="M144.518 124.707L143.998 125.469L139.571 122.478L140.09 121.715L144.518 124.707ZM146.153 122.858L142.879 127.666L142.255 127.245L145.529 122.436L146.153 122.858Z" fill="white"/>
<path d="M137.979 124.739L142.368 128.301L141.783 129.015L137.62 125.637L138.198 125.628L136.528 127.67C136.274 127.981 136.151 128.29 136.159 128.598C136.172 128.91 136.313 129.176 136.583 129.395C136.859 129.618 137.149 129.703 137.453 129.648C137.762 129.598 138.044 129.417 138.298 129.106L139.924 127.118L140.477 127.567L138.8 129.618C138.525 129.954 138.226 130.198 137.904 130.35C137.577 130.507 137.247 130.566 136.914 130.529C136.582 130.491 136.272 130.357 135.986 130.125C135.695 129.889 135.498 129.612 135.394 129.295C135.29 128.978 135.282 128.644 135.37 128.294C135.454 127.948 135.633 127.607 135.908 127.271L137.979 124.739Z" fill="white"/>
<path d="M111.401 148.929C111.199 148.366 111.155 147.8 111.27 147.23C111.389 146.667 111.651 146.144 112.056 145.664C112.455 145.186 112.986 144.785 113.648 144.462C114.394 144.097 115.123 143.924 115.833 143.941C116.538 143.961 117.175 144.156 117.744 144.524C118.317 144.899 118.773 145.431 119.113 146.121C119.455 146.816 119.598 147.501 119.542 148.176C119.486 148.85 119.25 149.471 118.835 150.038C118.414 150.609 117.83 151.076 117.084 151.441C116.422 151.764 115.779 151.937 115.155 151.959C114.526 151.984 113.951 151.871 113.431 151.619C112.914 151.373 112.493 150.995 112.167 150.485L113.025 150.066C113.292 150.426 113.617 150.692 113.999 150.862C114.385 151.038 114.808 151.11 115.27 151.077C115.735 151.051 116.217 150.916 116.717 150.672C117.301 150.387 117.755 150.027 118.079 149.594C118.397 149.163 118.573 148.687 118.607 148.164C118.641 147.642 118.521 147.102 118.246 146.544C117.974 145.993 117.621 145.57 117.186 145.277C116.75 144.984 116.263 144.828 115.723 144.809C115.181 144.799 114.617 144.937 114.034 145.222C113.534 145.466 113.13 145.76 112.822 146.104C112.516 146.454 112.314 146.832 112.215 147.237C112.119 147.649 112.133 148.073 112.259 148.51L111.401 148.929Z" fill="white"/>
<path d="M109.25 146.584L111.159 151.893L110.288 152.204L108.661 147.677L108.96 147.677L106.862 153.427L105.849 153.788L108.446 146.871L109.25 146.584ZM104.801 148.171L107.515 150.193L107.181 151.046L103.76 148.543L104.801 148.171Z" fill="white"/>
<path d="M98.068 149.915L98.7608 151.944L98.6773 152.674L99.0805 153.279L99.382 155.401L98.4626 155.619L98.0611 152.821L97.1486 150.134L98.068 149.915ZM98.3741 152.746C98.3806 152.141 98.4817 151.585 98.6774 151.078C98.8681 150.58 99.1466 150.16 99.5129 149.819C99.8726 149.479 100.307 149.249 100.815 149.128C101.357 148.999 101.865 149.006 102.339 149.147C102.816 149.294 103.226 149.554 103.57 149.925C103.909 150.305 104.146 150.777 104.282 151.342C104.419 151.914 104.421 152.442 104.289 152.926C104.15 153.412 103.901 153.825 103.541 154.165C103.182 154.504 102.731 154.738 102.19 154.867C101.681 154.988 101.19 154.978 100.715 154.837C100.233 154.697 99.7914 154.449 99.3888 154.091C98.9862 153.734 98.6479 153.285 98.3741 152.746ZM103.362 151.561C103.263 151.145 103.09 150.798 102.844 150.52C102.592 150.244 102.294 150.05 101.95 149.94C101.602 149.837 101.235 149.831 100.851 149.923C100.459 150.016 100.122 150.189 99.8379 150.442C99.5489 150.703 99.3154 151.023 99.1373 151.401C98.9527 151.782 98.8287 152.199 98.7653 152.653C99.0279 153.03 99.3277 153.347 99.6648 153.603C99.9953 153.861 100.348 154.038 100.722 154.135C101.092 154.239 101.472 154.245 101.864 154.152C102.248 154.06 102.572 153.887 102.835 153.632C103.093 153.386 103.272 153.082 103.372 152.722C103.465 152.364 103.462 151.976 103.362 151.561Z" fill="white"/>
<path d="M93.8048 152.491C94.5628 152.395 95.1639 152.524 95.6081 152.878C96.0531 153.239 96.3266 153.816 96.4286 154.611L96.6008 155.953L95.6832 156.069L95.5148 154.758C95.372 153.645 94.7786 153.155 93.7347 153.288C93.3091 153.342 92.9249 153.482 92.5822 153.707C92.2336 153.94 91.9202 154.263 91.642 154.676L91.4791 153.959C91.6983 153.561 92.0109 153.232 92.4167 152.971C92.8234 152.717 93.2861 152.557 93.8048 152.491ZM91.2948 150.943L92.0127 156.537L91.0951 156.654L90.3772 151.06L91.2948 150.943Z" fill="white"/>
<path d="M83.8659 151.297L84.1166 153.425L83.8813 154.122L84.1485 154.797L83.997 156.935L83.0521 156.957L83.248 154.137L82.921 151.319L83.8659 151.297ZM83.5697 154.129C83.7035 153.538 83.9193 153.016 84.2172 152.561C84.5085 152.114 84.8691 151.761 85.299 151.504C85.7221 151.247 86.1951 151.113 86.7178 151.101C87.2741 151.088 87.7695 151.2 88.2042 151.437C88.639 151.681 88.9855 152.02 89.2437 152.455C89.4954 152.897 89.6279 153.408 89.6415 153.989C89.6551 154.577 89.5464 155.093 89.3154 155.54C89.0777 155.986 88.7473 156.338 88.3241 156.594C87.9009 156.851 87.4112 156.986 86.855 156.999C86.3323 157.011 85.8536 156.899 85.4189 156.662C84.9776 156.425 84.5976 156.089 84.2791 155.656C83.9606 155.222 83.7241 154.713 83.5697 154.129ZM88.6965 154.011C88.6866 153.584 88.5907 153.208 88.4088 152.885C88.2203 152.562 87.9697 152.311 87.6571 152.131C87.3379 151.958 86.9806 151.876 86.5852 151.885C86.1831 151.895 85.8166 151.993 85.4857 152.181C85.1483 152.376 84.8527 152.64 84.5989 152.973C84.3384 153.307 84.1294 153.689 83.9718 154.12C84.1493 154.543 84.3759 154.915 84.6515 155.236C84.9205 155.558 85.228 155.804 85.574 155.977C85.9134 156.156 86.2842 156.241 86.6863 156.232C87.0817 156.222 87.4347 156.121 87.7453 155.927C88.0494 155.739 88.2881 155.48 88.4615 155.148C88.6281 154.817 88.7064 154.438 88.6965 154.011Z" fill="white"/>
<path d="M78.722 156.374L77.7999 156.299L78.2328 150.988L79.1548 151.062L78.722 156.374ZM81.1422 156.881L75.3293 156.411L75.3903 155.662L81.2032 156.132L81.1422 156.881Z" fill="white"/>
<path d="M75.468 150.72L74.5139 156.279L73.602 156.123L74.507 150.851L74.7991 151.348L72.1924 150.904C71.796 150.836 71.4652 150.881 71.2 151.039C70.9337 151.204 70.7712 151.458 70.7124 151.8C70.6526 152.149 70.7213 152.442 70.9187 152.678C71.1149 152.922 71.4113 153.077 71.8077 153.145L74.3451 153.577L74.2247 154.278L71.6081 153.832C71.1786 153.759 70.8183 153.62 70.5271 153.415C70.2293 153.208 70.015 152.951 69.884 152.645C69.753 152.338 69.7186 152.003 69.7808 151.641C69.844 151.273 69.9886 150.965 70.2145 150.719C70.4403 150.473 70.7281 150.302 71.0779 150.206C71.421 150.108 71.8074 150.096 72.2369 150.169L75.468 150.72Z" fill="white"/>
<path d="M41.3655 139.547C41.7592 139.096 42.2335 138.781 42.7885 138.602C43.3397 138.429 43.9249 138.401 44.5442 138.518C45.1579 138.631 45.7684 138.896 46.3756 139.312C47.0601 139.782 47.5686 140.33 47.9012 140.955C48.2282 141.577 48.3697 142.226 48.3259 142.901C48.2782 143.582 48.0357 144.239 47.5983 144.871C47.1572 145.509 46.6276 145.969 46.0097 146.25C45.3917 146.532 44.7329 146.631 44.0332 146.548C43.3279 146.461 42.633 146.183 41.9485 145.713C41.3413 145.296 40.8754 144.823 40.5507 144.292C40.2205 143.757 40.0384 143.202 40.0045 142.627C39.9667 142.058 40.0914 141.507 40.3785 140.974L41.1651 141.514C40.9804 141.922 40.9071 142.334 40.9453 142.75C40.9798 143.171 41.1242 143.574 41.3786 143.96C41.6292 144.351 41.9836 144.703 42.4417 145.018C42.9772 145.385 43.514 145.604 44.0522 145.673C44.5848 145.739 45.0881 145.658 45.562 145.432C46.0359 145.206 46.4497 144.837 46.8035 144.326C47.1534 143.82 47.35 143.306 47.3933 142.784C47.4367 142.263 47.3346 141.763 47.0872 141.285C46.8305 140.809 46.4344 140.387 45.899 140.019C45.4408 139.705 44.9856 139.498 44.5335 139.398C44.0775 139.304 43.6478 139.313 43.2445 139.426C42.8373 139.544 42.4732 139.764 42.1521 140.087L41.3655 139.547Z" fill="white"/>
<path d="M42.3564 136.539L38.6391 140.793L37.9414 140.188L41.1106 136.561L41.257 136.821L35.1961 137.807L34.3846 137.103L41.7117 135.98L42.3564 136.539ZM38.792 133.448L38.3472 136.794L37.4366 136.921L37.9578 132.724L38.792 133.448Z" fill="white"/>
<path d="M33.9578 128.481L32.5263 130.081L31.847 130.368L31.5174 131.015L29.812 132.322L29.1684 131.632L31.4156 129.906L33.3142 127.792L33.9578 128.481ZM31.6347 130.141C32.1672 129.848 32.7028 129.662 33.2417 129.582C33.7711 129.502 34.275 129.537 34.7534 129.687C35.2271 129.831 35.6421 130.095 35.9981 130.476C36.377 130.882 36.6217 131.325 36.7322 131.807C36.8378 132.293 36.813 132.776 36.6579 133.257C36.4933 133.738 36.1975 134.176 35.7704 134.572C35.3384 134.972 34.8782 135.234 34.3899 135.358C33.897 135.477 33.4136 135.464 32.9399 135.32C32.4661 135.175 32.0397 134.899 31.6609 134.494C31.3048 134.112 31.0715 133.681 30.961 133.2C30.846 132.713 30.8454 132.208 30.9595 131.683C31.0735 131.158 31.2986 130.644 31.6347 130.141ZM35.1268 133.882C35.441 133.591 35.659 133.27 35.7808 132.92C35.8981 132.566 35.9205 132.212 35.848 131.86C35.766 131.507 35.5904 131.187 35.321 130.898C35.0471 130.605 34.7298 130.397 34.369 130.275C33.9988 130.153 33.6043 130.108 33.1858 130.14C32.7626 130.167 32.3369 130.265 31.9086 130.434C31.7085 130.848 31.5795 131.263 31.5216 131.682C31.459 132.095 31.4779 132.488 31.5782 132.86C31.669 133.232 31.8513 133.565 32.1252 133.858C32.3945 134.147 32.7052 134.342 33.0572 134.445C33.3997 134.547 33.7528 134.553 34.1166 134.462C34.4759 134.366 34.8126 134.173 35.1268 133.882Z" fill="white"/>
<path d="M29.6139 126.072C30.0724 126.681 30.2567 127.265 30.1669 127.824C30.0717 128.388 29.7024 128.91 29.0588 129.391L27.9728 130.202L27.4178 129.465L28.4796 128.672C29.3806 127.999 29.5153 127.243 28.8839 126.404C28.6265 126.062 28.3147 125.798 27.9487 125.613C27.5733 125.426 27.1369 125.314 26.6395 125.276L27.1845 124.781C27.6404 124.775 28.0821 124.883 28.5098 125.106C28.9321 125.333 29.3002 125.655 29.6139 126.072ZM29.7265 123.133L25.1976 126.516L24.6426 125.779L29.1715 122.395L29.7265 123.133Z" fill="white"/>
<path d="M25.7657 116.889L24.0287 118.153L23.3039 118.292L22.8452 118.856L20.9022 119.776L20.4185 118.967L22.9797 117.75L25.282 116.08L25.7657 116.889ZM23.1444 118.025C23.7267 117.851 24.2897 117.781 24.8333 117.816C25.3678 117.848 25.8531 117.988 26.2892 118.234C26.7218 118.475 27.072 118.819 27.3396 119.267C27.6243 119.743 27.7699 120.228 27.7764 120.721C27.7771 121.218 27.6509 121.686 27.3978 122.124C27.1354 122.559 26.7537 122.926 26.2527 123.223C25.7459 123.524 25.2407 123.684 24.7371 123.703C24.23 123.716 23.7602 123.602 23.3275 123.362C22.8949 123.121 22.5362 122.762 22.2514 122.286C21.9838 121.839 21.8468 121.368 21.8403 120.875C21.8304 120.375 21.9366 119.881 22.1589 119.391C22.3811 118.902 22.7097 118.446 23.1444 118.025ZM25.7689 122.414C26.1375 122.195 26.4183 121.928 26.6113 121.611C26.8009 121.289 26.8974 120.948 26.9008 120.588C26.8951 120.226 26.791 119.876 26.5886 119.537C26.3827 119.193 26.1163 118.924 25.7892 118.729C25.453 118.532 25.0769 118.406 24.6609 118.35C24.2415 118.288 23.8046 118.294 23.3503 118.369C23.0674 118.732 22.8536 119.111 22.7086 119.508C22.5602 119.899 22.4957 120.287 22.5152 120.672C22.5255 121.055 22.6336 121.418 22.8394 121.762C23.0418 122.101 23.3043 122.357 23.6268 122.531C23.9401 122.703 24.2842 122.782 24.659 122.77C25.0304 122.751 25.4004 122.633 25.7689 122.414Z" fill="white"/>
<path d="M18.9363 115.233L18.5444 114.398L23.3902 112.141L23.782 112.975L18.9363 115.233ZM19.6932 117.578L17.2228 112.315L17.9059 111.997L20.3763 117.26L19.6932 117.578Z" fill="white"/>
<path d="M22.2512 109.619L16.9289 111.541L16.6137 110.674L21.6619 108.852L21.3727 109.35L20.4716 106.874C20.3345 106.497 20.1315 106.233 19.8625 106.081C19.5872 105.932 19.2856 105.917 18.9579 106.035C18.6239 106.156 18.4023 106.36 18.2932 106.648C18.1778 106.938 18.1886 107.272 18.3256 107.648L19.2027 110.059L18.5315 110.302L17.627 107.815C17.4785 107.407 17.422 107.026 17.4573 106.673C17.4903 106.313 17.6083 106 17.8114 105.735C18.0144 105.47 18.2892 105.275 18.6359 105.15C18.9888 105.022 19.3284 104.996 19.6548 105.07C19.9812 105.143 20.2728 105.308 20.5297 105.563C20.7843 105.812 20.9858 106.141 21.1343 106.549L22.2512 109.619Z" fill="white"/>
<path d="M15.1246 74.2207C15.713 74.3399 16.2218 74.5962 16.651 74.9895C17.0736 75.3823 17.3862 75.8759 17.5889 76.4705C17.7921 77.0583 17.8611 77.7181 17.7958 78.4498C17.7221 79.2746 17.4938 79.9852 17.1108 80.5814C16.7284 81.1711 16.2313 81.6131 15.6195 81.9075C15.0011 82.2013 14.3079 82.3142 13.54 82.2462C12.7655 82.1776 12.1032 81.9446 11.5531 81.5473C11.0031 81.1499 10.5921 80.6274 10.3202 79.9798C10.0488 79.3256 9.94994 78.5861 10.0236 77.7612C10.0889 77.0295 10.2737 76.3923 10.5779 75.8493C10.8827 75.2998 11.2778 74.8688 11.7633 74.5565C12.2422 74.2436 12.785 74.0805 13.3919 74.0672L13.3073 75.0151C12.8595 75.0559 12.4635 75.1951 12.1192 75.4328C11.7683 75.6699 11.487 75.9936 11.2754 76.4039C11.0571 76.8136 10.9233 77.2945 10.874 77.8466C10.8164 78.4919 10.8898 79.0649 11.0941 79.5657C11.299 80.0598 11.6169 80.4567 12.0477 80.7564C12.4786 81.056 13.0046 81.2334 13.6255 81.2884C14.2398 81.3428 14.7856 81.2604 15.2628 81.0412C15.74 80.822 16.1265 80.4875 16.4224 80.0378C16.7122 79.5807 16.8859 79.0296 16.9435 78.3844C16.9928 77.8323 16.9497 77.3357 16.8141 76.8946C16.6718 76.4529 16.4523 76.0848 16.1555 75.7904C15.8521 75.4953 15.4803 75.2881 15.04 75.1686L15.1246 74.2207Z" fill="white"/>
<path d="M18.2093 73.7134L12.661 72.5934L12.8447 71.6902L17.5751 72.6451L17.4206 72.9001L13.5676 68.1363L13.7813 67.0858L18.3791 72.8789L18.2093 73.7134ZM19.1479 69.0992L16.0072 70.3663L15.4471 69.6399L19.3676 68.0193L19.1479 69.0992Z" fill="white"/>
<path d="M21.068 62.544L18.9652 62.0918L18.3795 61.6446L17.6518 61.678L15.6703 60.8437L15.9553 59.9459L18.5705 61.0429L21.3529 61.6463L21.068 62.544ZM18.4735 61.3485C18.9915 61.6658 19.4181 62.0383 19.7534 62.4661C20.0842 62.8855 20.3023 63.3394 20.4074 63.8278C20.5145 64.3098 20.4892 64.7991 20.3316 65.2957C20.1638 65.8242 19.897 66.2549 19.5312 66.588C19.159 66.9189 18.7246 67.1358 18.2279 67.2385C17.7269 67.3328 17.1984 67.2924 16.6423 67.1172C16.0799 66.94 15.6241 66.6704 15.275 66.3083C14.928 65.9398 14.7009 65.5146 14.5937 65.0326C14.4866 64.5506 14.5169 64.0453 14.6847 63.5169C14.8423 63.0202 15.104 62.6054 15.4699 62.2724C15.8377 61.933 16.2791 61.6833 16.7939 61.5233C17.3087 61.3633 17.8686 61.3051 18.4735 61.3485ZM16.9273 66.2194C17.3364 66.3483 17.7238 66.3793 18.0895 66.3124C18.4573 66.2391 18.7771 66.0843 19.049 65.8477C19.3166 65.6028 19.51 65.2926 19.6293 64.9169C19.7505 64.5349 19.7754 64.1575 19.7039 63.7848C19.628 63.4037 19.4729 63.0396 19.2385 62.6926C19.0062 62.3393 18.7107 62.0186 18.3522 61.7306C17.8926 61.7609 17.4658 61.8541 17.0718 62.0101C16.6798 62.1598 16.3459 62.3698 16.0703 62.6401C15.7903 62.9021 15.5896 63.2241 15.4684 63.6062C15.3491 63.9818 15.3315 64.3475 15.4154 64.7031C15.495 65.0504 15.6642 65.3593 15.9228 65.6298C16.1834 65.894 16.5183 66.0906 16.9273 66.2194Z" fill="white"/>
<path d="M21.0783 57.4581C20.7701 58.1547 20.3492 58.6012 19.8155 58.7975C19.2757 58.991 18.6377 58.9263 17.9016 58.6031L16.6594 58.0578L17.0325 57.2145L18.247 57.7477C19.2776 58.2001 20.0051 57.9466 20.4295 56.9872C20.6025 56.5961 20.6805 56.1961 20.6636 55.7873C20.6432 55.3697 20.5275 54.9358 20.3164 54.4855L21.0165 54.7162C21.2458 55.1088 21.3676 55.5454 21.3821 56.0261C21.3904 56.5041 21.2891 56.9814 21.0783 57.4581ZM23.705 56.1154L18.5246 53.8413L18.8977 52.9979L24.0781 55.2721L23.705 56.1154Z" fill="white"/>
<path d="M27.2498 49.56L25.2935 48.6688L24.8177 48.1069L24.0998 47.9839L22.3442 46.7455L22.8159 45.9295L25.1339 47.56L27.7216 48.7441L27.2498 49.56ZM24.9733 47.8378C25.4109 48.2584 25.7473 48.7134 25.9826 49.2029C26.2155 49.6833 26.3306 50.1732 26.3281 50.6727C26.3289 51.1663 26.1988 51.6389 25.9379 52.0902C25.6602 52.5705 25.3068 52.9342 24.8778 53.1812C24.4429 53.425 23.9719 53.5439 23.4647 53.538C22.9551 53.5231 22.4476 53.3706 21.9422 53.0806C21.431 52.7873 21.0439 52.4266 20.781 51.9983C20.5214 51.5642 20.3912 51.1003 20.3904 50.6066C20.3895 50.113 20.528 49.626 20.8057 49.1457C21.0666 48.6943 21.4116 48.3451 21.8407 48.098C22.2731 47.8452 22.7579 47.6957 23.2952 47.6495C23.8325 47.6032 24.3919 47.666 24.9733 47.8378ZM22.4139 52.2647C22.7857 52.478 23.1574 52.5911 23.529 52.6039C23.904 52.611 24.2498 52.5281 24.5663 52.3552C24.8804 52.1732 25.1361 51.9115 25.3335 51.5701C25.5342 51.2229 25.6398 50.8596 25.6503 50.4803C25.6582 50.0918 25.5851 49.7031 25.431 49.3141C25.2802 48.9193 25.0607 48.543 24.7726 48.185C24.3171 48.1163 23.8802 48.1161 23.4617 48.1843C23.0466 48.2467 22.6753 48.3804 22.3479 48.5856C22.0179 48.7816 21.7526 49.0532 21.5519 49.4004C21.3545 49.7418 21.2585 50.0952 21.2639 50.4605C21.2669 50.8167 21.3655 51.1545 21.5598 51.4741C21.7574 51.7879 22.0422 52.0514 22.4139 52.2647Z" fill="white"/>
<path d="M25.2842 42.9031L25.8229 42.1539L30.1717 45.2571L29.633 46.0063L25.2842 42.9031ZM23.6021 44.7092L26.9982 39.9861L27.6113 40.4236L24.2152 45.1467L23.6021 44.7092Z" fill="white"/>
<path d="M31.7395 43.1065L27.4429 39.4345L28.0453 38.735L32.1205 42.2179L31.5425 42.2123L33.2644 40.2128C33.5263 39.9087 33.6573 39.6027 33.6575 39.2949C33.6525 38.9827 33.5178 38.7135 33.2532 38.4874C32.9835 38.257 32.696 38.1652 32.3906 38.2122C32.0801 38.2548 31.7939 38.4281 31.532 38.7322L29.856 40.6785L29.3141 40.2154L31.0426 38.2083C31.3263 37.8789 31.6314 37.6425 31.9579 37.4992C32.2888 37.3509 32.6201 37.2996 32.9516 37.3454C33.2831 37.3912 33.5888 37.5336 33.8686 37.7728C34.1535 38.0163 34.3439 38.2978 34.4398 38.6172C34.5356 38.9367 34.5351 39.2706 34.4382 39.619C34.3457 39.9623 34.1576 40.2986 33.8739 40.6281L31.7395 43.1065Z" fill="white"/>
<path d="M56.8221 20.3227C57.0288 20.8842 57.0767 21.4502 56.9656 22.0206C56.8515 22.585 56.5936 23.109 56.1918 23.5927C55.7959 24.0735 55.2682 24.478 54.6086 24.8064C53.865 25.1765 53.138 25.3555 52.4275 25.3434C51.723 25.3283 51.0845 25.1385 50.5119 24.774C49.9364 24.4035 49.4764 23.8748 49.1318 23.1878C48.7842 22.4949 48.636 21.8109 48.6871 21.136C48.7383 20.4611 48.9693 19.8385 49.3801 19.2681C49.797 18.6948 50.3772 18.2231 51.1207 17.853C51.7804 17.5246 52.422 17.3471 53.0455 17.3204C53.6751 17.2907 54.2507 17.3998 54.7722 17.6478C55.2908 17.8898 55.7149 18.2648 56.0446 18.7725L55.1901 19.1979C54.9203 18.8395 54.5936 18.5766 54.2099 18.4092C53.8232 18.2359 53.3991 18.1671 52.9374 18.2029C52.4727 18.2326 51.9915 18.3714 51.4938 18.6191C50.9121 18.9087 50.4609 19.2714 50.14 19.7073C49.8251 20.1403 49.6526 20.6181 49.6225 21.1407C49.5924 21.6634 49.7166 22.2024 49.9953 22.758C50.271 23.3076 50.6276 23.7273 51.0653 24.0171C51.5029 24.3069 51.9915 24.4593 52.5311 24.4744C53.0737 24.4805 53.6359 24.3387 54.2175 24.0492C54.7152 23.8014 55.117 23.5044 55.4229 23.158C55.7258 22.8057 55.9252 22.4265 56.0213 22.0203C56.1143 21.6082 56.0964 21.1841 55.9676 20.7481L56.8221 20.3227Z" fill="white"/>
<path d="M58.8324 22.6883L56.8835 17.3935L57.752 17.0762L59.4136 21.5904L59.1147 21.5929L61.1695 15.8278L62.1797 15.4589L59.6349 22.3951L58.8324 22.6883ZM63.2695 21.0675L60.5408 19.0662L60.8684 18.2104L64.308 20.6881L63.2695 21.0675Z" fill="white"/>
<path d="M69.7705 19.2838L69.0546 17.263L69.1297 16.5316L68.7196 15.9318L68.3938 13.8136L69.3106 13.5846L69.7441 16.3782L70.6873 19.0548L69.7705 19.2838ZM69.432 16.4561C69.4324 17.0619 69.3377 17.6191 69.1478 18.1278C68.9628 18.6284 68.6891 19.0513 68.3268 19.3965C67.971 19.7401 67.5395 19.9753 67.0323 20.1019C66.4926 20.2367 65.9845 20.2363 65.5081 20.1005C65.03 19.9583 64.6169 19.7035 64.2687 19.3361C63.9254 18.9605 63.6828 18.491 63.541 17.9275C63.3975 17.3575 63.389 16.8295 63.5155 16.3435C63.6485 15.8559 63.8929 15.4403 64.2487 15.0967C64.6046 14.7531 65.0523 14.5139 65.592 14.3791C66.0992 14.2524 66.591 14.2569 67.0675 14.3927C67.5504 14.5268 67.9953 14.7702 68.402 15.123C68.8087 15.4758 69.152 15.9202 69.432 16.4561ZM64.4578 17.6985C64.5621 18.113 64.7388 18.4579 64.9877 18.7331C65.2431 19.0066 65.5432 19.1967 65.888 19.3034C66.2376 19.402 66.6042 19.4033 66.9879 19.3075C67.378 19.2101 67.7136 19.0333 67.9947 18.7772C68.2807 18.513 68.5105 18.1906 68.6842 17.8098C68.8644 17.4275 68.9837 17.0087 69.0419 16.5536C68.775 16.1796 68.4716 15.8664 68.1316 15.614C67.7981 15.3599 67.4436 15.1868 67.0679 15.0948C66.6972 14.9946 66.3167 14.9932 65.9266 15.0907C65.543 15.1865 65.2212 15.3633 64.9612 15.621C64.7061 15.8705 64.5307 16.176 64.4351 16.5372C64.3459 16.8968 64.3535 17.2839 64.4578 17.6985Z" fill="white"/>
<path d="M73.9895 16.6306C73.2326 16.7358 72.6301 16.6139 72.1818 16.2649C71.7327 15.9093 71.4525 15.3347 71.3413 14.541L71.1536 13.2017L72.0699 13.0744L72.2533 14.3839C72.409 15.495 73.008 15.9781 74.0504 15.8332C74.4753 15.7741 74.8578 15.6299 75.1979 15.4006C75.5438 15.1637 75.8534 14.8374 76.1268 14.4218L76.298 15.1363C76.0834 15.537 75.7747 15.8699 75.3719 16.1349C74.9681 16.3933 74.5073 16.5586 73.9895 16.6306ZM76.5172 18.1502L75.7347 12.5648L76.6509 12.4374L77.4334 18.0228L76.5172 18.1502Z" fill="white"/>
<path d="M84.2032 17.6807L83.9361 15.5543L84.1659 14.8558L83.8936 14.1827L84.0285 12.0439L84.9732 12.0148L84.7991 14.8363L85.148 17.6517L84.2032 17.6807ZM84.4775 14.8462C84.3483 15.4381 84.1365 15.9624 83.8422 16.4191C83.5543 16.8689 83.1965 17.224 82.7686 17.4844C82.3474 17.7445 81.8756 17.8826 81.3529 17.8987C80.7968 17.9158 80.3005 17.8075 79.864 17.5737C79.4273 17.3333 79.0782 16.9966 78.8167 16.5637C78.5616 16.1239 78.425 15.6137 78.407 15.033C78.3888 14.4456 78.4935 13.9279 78.721 13.4799C78.9553 13.0318 79.283 12.6776 79.7042 12.4175C80.1253 12.1573 80.614 12.0187 81.1701 12.0016C81.6927 11.9855 82.1723 12.0943 82.6087 12.3281C83.0519 12.5617 83.4344 12.894 83.7563 13.325C84.0782 13.7561 84.3186 14.2631 84.4775 14.8462ZM79.3518 15.0039C79.365 15.4311 79.4638 15.8055 79.6482 16.1272C79.8392 16.4487 80.0917 16.6982 80.4057 16.8756C80.7262 17.0461 81.0842 17.1253 81.4795 17.1131C81.8815 17.1008 82.2472 16.9993 82.5766 16.8088C82.9126 16.6114 83.2061 16.3451 83.4573 16.01C83.7152 15.6747 83.9212 15.2909 84.0755 14.8585C83.8947 14.4365 83.6653 14.0661 83.3871 13.7473C83.1157 13.4282 82.8063 13.1839 82.459 13.0142C82.1182 12.8376 81.7468 12.7555 81.3448 12.7679C80.9494 12.78 80.5972 12.8844 80.2881 13.081C79.9855 13.2707 79.7488 13.5318 79.578 13.8645C79.4139 14.1969 79.3385 14.5767 79.3518 15.0039Z" fill="white"/>
<path d="M88.9321 12.5119L89.855 12.5759L89.4838 17.892L88.561 17.8281L88.9321 12.5119ZM86.5062 12.0326L92.3242 12.4357L92.2718 13.1851L86.4539 12.782L86.5062 12.0326Z" fill="white"/>
<path d="M92.241 18.0935L93.1309 12.5241L94.0445 12.669L93.2004 17.9515L92.9025 17.458L95.5142 17.8721C95.9114 17.9351 96.2417 17.886 96.505 17.7249C96.7694 17.5572 96.9289 17.3019 96.9837 16.959C97.0396 16.6094 96.9675 16.3174 96.7674 16.0828C96.5683 15.8416 96.2702 15.6895 95.873 15.6265L93.3309 15.2234L93.4431 14.5211L96.0647 14.9368C96.495 15.005 96.8569 15.1402 97.1504 15.3422C97.4506 15.5454 97.6679 15.7996 97.8024 16.1049C97.9369 16.4102 97.9751 16.7443 97.9172 17.107C97.8582 17.4763 97.7172 17.7853 97.4942 18.0339C97.2711 18.2826 96.9853 18.457 96.6367 18.5573C96.2947 18.6586 95.9086 18.6751 95.4782 18.6069L92.241 18.0935Z" fill="white"/>
<path d="M124.887 27.5045C124.514 27.9728 124.054 28.3084 123.507 28.5112C122.964 28.7083 122.381 28.762 121.757 28.6724C121.139 28.5863 120.517 28.3483 119.892 27.9586C119.187 27.5192 118.655 26.9943 118.295 26.3838C117.941 25.7769 117.771 25.1351 117.785 24.4584C117.803 23.7761 118.016 23.1094 118.425 22.4585C118.838 21.8019 119.347 21.3195 119.951 21.0113C120.556 20.7031 121.21 20.5751 121.913 20.6273C122.621 20.683 123.328 20.9305 124.032 21.3699C124.657 21.7597 125.144 22.2127 125.492 22.729C125.845 23.2488 126.051 23.7951 126.111 24.3678C126.174 24.9348 126.073 25.4908 125.81 26.0356L125 25.5307C125.167 25.1146 125.222 24.6998 125.165 24.2864C125.112 23.8673 124.95 23.4708 124.679 23.0968C124.412 22.7172 124.042 22.3804 123.57 22.0863C123.019 21.7426 122.473 21.5479 121.932 21.5022C121.397 21.46 120.898 21.5623 120.435 21.809C119.971 22.0557 119.574 22.4423 119.243 22.9687C118.916 23.4895 118.742 24.0114 118.722 24.5345C118.702 25.0576 118.826 25.5525 119.094 26.0191C119.372 26.4837 119.786 26.8878 120.337 27.2315C120.809 27.5256 121.273 27.7125 121.729 27.7921C122.188 27.8661 122.617 27.8381 123.015 27.7081C123.417 27.5725 123.771 27.3363 124.077 26.9996L124.887 27.5045Z" fill="white"/>
<path d="M123.798 30.3596L127.31 25.9358L128.035 26.5073L125.042 30.279L124.883 30.0265L130.891 28.7563L131.735 29.4211L124.469 30.8877L123.798 30.3596ZM127.506 33.2796L127.791 29.916L128.695 29.7466L128.373 33.963L127.506 33.2796Z" fill="white"/>
<path d="M132.57 37.9804L133.924 36.3153L134.589 35.9964L134.887 35.3344L136.529 33.9494L137.204 34.6079L135.041 36.4377L133.245 38.6389L132.57 37.9804ZM134.811 36.2135C134.293 36.5308 133.767 36.742 133.233 36.8469C132.708 36.9518 132.203 36.9408 131.718 36.8138C131.238 36.6915 130.811 36.4482 130.437 36.084C130.039 35.6963 129.774 35.2647 129.641 34.7892C129.512 34.309 129.514 33.8249 129.646 33.3371C129.788 32.8491 130.062 32.3975 130.47 31.9823C130.883 31.5622 131.33 31.2787 131.812 31.1318C132.299 30.9896 132.782 30.9796 133.262 31.1019C133.742 31.2242 134.181 31.4792 134.579 31.8668C134.953 32.2311 135.206 32.651 135.339 33.1265C135.477 33.6067 135.502 34.1117 135.413 34.6416C135.324 35.1714 135.123 35.6954 134.811 36.2135ZM131.146 32.6408C130.846 32.9463 130.643 33.2767 130.538 33.632C130.438 33.992 130.432 34.3462 130.521 34.6947C130.62 35.0431 130.811 35.355 131.093 35.6306C131.381 35.9108 131.708 36.1032 132.074 36.2078C132.449 36.3124 132.846 36.3388 133.262 36.287C133.684 36.24 134.104 36.122 134.524 35.9333C134.704 35.5111 134.813 35.0896 134.851 34.6689C134.894 34.2529 134.857 33.8613 134.739 33.4943C134.631 33.1271 134.433 32.8034 134.145 32.5232C133.863 32.2477 133.543 32.067 133.187 31.9811C132.84 31.8951 132.487 31.9061 132.127 32.0138C131.773 32.1263 131.446 32.3353 131.146 32.6408Z" fill="white"/>
<path d="M137.3 40.4738C136.815 39.8853 136.605 39.3096 136.671 38.7466C136.741 38.1794 137.087 37.6416 137.709 37.1332L138.758 36.2753L139.345 36.9877L138.319 37.8265C137.449 38.5382 137.347 39.2993 138.015 40.1098C138.287 40.4401 138.61 40.6901 138.984 40.8596C139.367 41.0301 139.808 41.1232 140.306 41.1389L139.784 41.657C139.329 41.6835 138.883 41.5946 138.445 41.3904C138.014 41.182 137.632 40.8765 137.3 40.4738ZM137.317 43.4149L141.693 39.8372L142.279 40.5495L137.903 44.1272L137.317 43.4149Z" fill="white"/>
<path d="M141.551 49.4654L143.23 48.1263L143.948 47.9561L144.382 47.3728L146.282 46.3685L146.801 47.1555L144.296 48.4835L142.07 50.2523L141.551 49.4654ZM144.12 48.2156C143.546 48.4155 142.986 48.51 142.442 48.4989C141.906 48.4898 141.415 48.3717 140.969 48.1447C140.526 47.9232 140.161 47.5947 139.874 47.1594C139.568 46.6962 139.401 46.2182 139.373 45.7253C139.35 45.2288 139.456 44.7562 139.689 44.3077C139.932 43.8611 140.297 43.4783 140.784 43.1592C141.277 42.8365 141.775 42.6546 142.277 42.6135C142.783 42.578 143.258 42.6709 143.701 42.8924C144.144 43.1139 144.518 43.4563 144.823 43.9195C145.11 44.3548 145.268 44.8189 145.296 45.3118C145.328 45.8103 145.244 46.3089 145.044 46.8076C144.843 47.3064 144.535 47.7757 144.12 48.2156ZM141.303 43.9461C140.945 44.1808 140.676 44.4606 140.497 44.7854C140.322 45.1158 140.241 45.4606 140.253 45.82C140.275 46.1814 140.395 46.5267 140.612 46.8559C140.833 47.1908 141.111 47.4483 141.446 47.6283C141.791 47.8102 142.172 47.9202 142.59 47.9582C143.012 48.0017 143.448 47.9759 143.899 47.8807C144.165 47.5065 144.362 47.1179 144.489 46.715C144.62 46.3177 144.668 45.9272 144.631 45.5435C144.604 45.1618 144.48 44.8035 144.259 44.4687C144.042 44.1394 143.768 43.8949 143.438 43.7353C143.118 43.5776 142.771 43.5132 142.397 43.5422C142.026 43.5768 141.662 43.7114 141.303 43.9461Z" fill="white"/>
<path d="M148.421 50.7502L148.85 51.5668L144.11 54.0367L143.681 53.2201L148.421 50.7502ZM147.56 48.4405L150.263 53.5886L149.595 53.9368L146.892 48.7887L147.56 48.4405Z" fill="white"/>
<path d="M145.378 56.5162L150.608 54.3582L150.962 55.2096L146.001 57.2565L146.268 56.7454L147.28 59.1794C147.434 59.5496 147.648 59.8043 147.924 59.9436C148.206 60.0803 148.508 60.0822 148.83 59.9493C149.158 59.8139 149.37 59.5999 149.466 59.3073C149.568 59.0121 149.542 58.6795 149.389 58.3093L148.403 55.9401L149.063 55.668L150.079 58.1112C150.246 58.5122 150.319 58.8902 150.3 59.2451C150.283 59.6062 150.179 59.9237 149.989 60.1976C149.798 60.4715 149.532 60.6787 149.191 60.8193C148.845 60.9624 148.506 61.0043 148.177 60.945C147.848 60.8858 147.549 60.7344 147.281 60.4908C147.015 60.2535 146.799 59.9343 146.632 59.5332L145.378 56.5162Z" fill="white"/>
<circle cx="40.001" cy="30" r="1.5" stroke="white"/>
<circle cx="108.001" cy="19" r="1.5" stroke="white"/>
<circle cx="153.001" cy="73" r="1.5" stroke="white"/>
<circle cx="128.001" cy="140" r="1.5" stroke="white"/>
<circle cx="57.001" cy="150" r="1.5" stroke="white"/>
<circle cx="15.001" cy="94" r="1.5" stroke="white"/>
</svg>
