<svg width="150" height="55" viewBox="0 0 150 55" fill="none" xmlns="http://www.w3.org/2000/svg">
<path d="M16.298 12.853V10.04L16.472 9.373V5.545L16.298 4.936V0.469998H21.692V12.592C21.692 14.6413 21.2183 16.3813 20.271 17.812C19.343 19.262 18.0477 20.364 16.385 21.118C14.7223 21.872 12.789 22.249 10.585 22.249C9.05767 22.249 7.64633 22.046 6.351 21.64C5.075 21.2533 3.80867 20.6637 2.552 19.871V15.753C3.73133 16.6423 4.96867 17.2803 6.264 17.667C7.57867 18.073 8.903 18.276 10.237 18.276C12.1897 18.276 13.688 17.841 14.732 16.971C15.776 16.0817 16.298 14.709 16.298 12.853ZM8.99 15.376C7.44333 15.376 6.061 15.057 4.843 14.419C3.625 13.781 2.668 12.8917 1.972 11.751C1.276 10.591 0.928 9.23767 0.928 7.691C0.928 6.14433 1.276 4.80067 1.972 3.66C2.668 2.5 3.625 1.601 4.843 0.962999C6.061 0.324999 7.44333 0.00599927 8.99 0.00599927C10.15 0.00599927 11.2133 0.189666 12.18 0.556999C13.1467 0.904999 14.007 1.369 14.761 1.949C15.515 2.529 16.153 3.167 16.675 3.863C17.197 4.53967 17.5933 5.226 17.864 5.922C18.1347 6.59867 18.27 7.20767 18.27 7.749C18.27 8.46433 18.0573 9.26667 17.632 10.156C17.2067 11.026 16.588 11.8573 15.776 12.65C14.9833 13.4427 14.0167 14.1 12.876 14.622C11.7353 15.1247 10.44 15.376 8.99 15.376ZM10.788 11.635C11.9867 11.635 13.0597 11.316 14.007 10.678C14.9543 10.04 15.776 9.04433 16.472 7.691C15.776 6.31833 14.9447 5.313 13.978 4.675C13.0307 4.037 11.9673 3.718 10.788 3.718C9.87933 3.718 9.08667 3.88233 8.41 4.211C7.75267 4.53967 7.24033 5.00367 6.873 5.603C6.525 6.183 6.351 6.879 6.351 7.691C6.351 8.48367 6.525 9.17967 6.873 9.779C7.221 10.359 7.72367 10.8133 8.381 11.142C9.05767 11.4707 9.86 11.635 10.788 11.635ZM40.0979 17L39.3729 10.997L40.1559 8.735L39.3729 6.502L40.0979 0.469998H45.6949L44.6799 8.735L45.6949 17H40.0979ZM41.4319 8.735C41.1419 10.4943 40.5909 12.0313 39.7789 13.346C38.9669 14.6413 37.9423 15.6563 36.7049 16.391C35.4676 17.1063 34.0756 17.464 32.5289 17.464C30.9049 17.464 29.4743 17.0967 28.2369 16.362C27.0189 15.6273 26.0619 14.6123 25.3659 13.317C24.6699 12.0023 24.3219 10.475 24.3219 8.735C24.3219 6.995 24.6699 5.47733 25.3659 4.182C26.0619 2.86733 27.0189 1.84267 28.2369 1.108C29.4743 0.373332 30.9049 0.00599927 32.5289 0.00599927C34.0756 0.00599927 35.4676 0.373332 36.7049 1.108C37.9423 1.82333 38.9669 2.82867 39.7789 4.124C40.6103 5.41933 41.1613 6.95633 41.4319 8.735ZM29.7739 8.735C29.7739 9.62433 29.9576 10.417 30.3249 11.113C30.6923 11.7897 31.1949 12.331 31.8329 12.737C32.4903 13.1237 33.2443 13.317 34.0949 13.317C34.9456 13.317 35.7479 13.1237 36.5019 12.737C37.2753 12.331 37.9519 11.7897 38.5319 11.113C39.1119 10.417 39.5469 9.62433 39.8369 8.735C39.5469 7.84567 39.1119 7.06267 38.5319 6.386C37.9519 5.69 37.2753 5.14867 36.5019 4.762C35.7479 4.356 34.9456 4.153 34.0949 4.153C33.2443 4.153 32.4903 4.356 31.8329 4.762C31.1949 5.14867 30.6923 5.69 30.3249 6.386C29.9576 7.06267 29.7739 7.84567 29.7739 8.735ZM47.9687 0.469998H53.3337L54.4067 6.908V17H49.0127V6.096L47.9687 0.469998ZM60.2067 0.00599927C61.7147 0.00599927 62.9907 0.324999 64.0347 0.962999C65.0981 1.58167 65.9004 2.471 66.4417 3.631C67.0024 4.791 67.2827 6.17333 67.2827 7.778V17H61.8887V8.59C61.8887 7.21733 61.5891 6.183 60.9897 5.487C60.3904 4.77167 59.5107 4.414 58.3507 4.414C57.5387 4.414 56.8331 4.60733 56.2337 4.994C55.6537 5.36133 55.1994 5.893 54.8707 6.589C54.5614 7.26567 54.4067 8.07767 54.4067 9.025L52.6957 8.126C52.9084 6.36667 53.3627 4.88767 54.0587 3.689C54.7741 2.49033 55.6537 1.58167 56.6977 0.962999C57.7611 0.324999 58.9307 0.00599927 60.2067 0.00599927ZM73.0537 0.00599927C74.5617 0.00599927 75.8474 0.324999 76.9107 0.962999C77.9741 1.58167 78.7764 2.471 79.3177 3.631C79.8784 4.791 80.1587 6.17333 80.1587 7.778V17H74.7647V8.59C74.7647 7.21733 74.4651 6.183 73.8657 5.487C73.2664 4.77167 72.3867 4.414 71.2267 4.414C70.4147 4.414 69.7091 4.60733 69.1097 4.994C68.5297 5.36133 68.0754 5.893 67.7467 6.589C67.4374 7.26567 67.2827 8.07767 67.2827 9.025L65.5717 8.126C65.7844 6.36667 66.2387 4.88767 66.9347 3.689C67.6307 2.49033 68.5104 1.58167 69.5737 0.962999C70.6371 0.324999 71.7971 0.00599927 73.0537 0.00599927ZM92.8988 17.464C90.9268 17.464 89.1578 17.0967 87.5918 16.362C86.0451 15.6273 84.8271 14.6027 83.9378 13.288C83.0484 11.9733 82.6038 10.4363 82.6038 8.677C82.6038 6.95633 83.0291 5.44833 83.8798 4.153C84.7304 2.85767 85.9001 1.84267 87.3888 1.108C88.8968 0.373332 90.5981 0.00599927 92.4928 0.00599927C94.4261 0.00599927 96.0888 0.431332 97.4808 1.282C98.8728 2.13267 99.9458 3.33133 100.7 4.878C101.454 6.42467 101.831 8.242 101.831 10.33H86.9248V6.937H98.8728L96.9298 8.155C96.8718 7.24633 96.6494 6.48267 96.2628 5.864C95.8954 5.226 95.4024 4.74267 94.7838 4.414C94.1651 4.066 93.4304 3.892 92.5798 3.892C91.6518 3.892 90.8494 4.07567 90.1728 4.443C89.4961 4.81033 88.9644 5.32267 88.5778 5.98C88.2104 6.63733 88.0268 7.401 88.0268 8.271C88.0268 9.373 88.2684 10.3107 88.7518 11.084C89.2544 11.8573 89.9698 12.447 90.8978 12.853C91.8451 13.259 92.9954 13.462 94.3488 13.462C95.5861 13.462 96.8234 13.2977 98.0608 12.969C99.2981 12.621 100.41 12.1377 101.396 11.519V15.028C100.274 15.8013 98.9888 16.4007 97.5388 16.826C96.1081 17.2513 94.5614 17.464 92.8988 17.464ZM21.344 33.369H15.979C15.8823 32.557 15.5343 31.8997 14.935 31.397C14.355 30.875 13.5237 30.614 12.441 30.614C11.803 30.614 11.252 30.701 10.788 30.875C10.3433 31.049 9.99533 31.2907 9.744 31.6C9.49267 31.9093 9.367 32.2863 9.367 32.731C9.367 33.0597 9.47333 33.4077 9.686 33.775C9.89867 34.123 10.2467 34.5097 10.73 34.935L27.173 49H20.387L6.612 37.255C5.742 36.501 5.02667 35.7277 4.466 34.935C3.92467 34.123 3.654 33.2723 3.654 32.383C3.654 31.2617 3.98267 30.2853 4.64 29.454C5.31667 28.6227 6.293 27.975 7.569 27.511C8.86433 27.0277 10.4207 26.786 12.238 26.786C14.1133 26.786 15.718 27.076 17.052 27.656C18.386 28.236 19.4107 29.019 20.126 30.005C20.8607 30.991 21.2667 32.1123 21.344 33.369ZM20.242 37.11H25.868L19.227 44.766C18.299 45.868 17.3517 46.767 16.385 47.463C15.4377 48.1397 14.4033 48.6423 13.282 48.971C12.18 49.2997 10.9137 49.464 9.483 49.464C7.70433 49.464 6.177 49.1837 4.901 48.623C3.625 48.043 2.639 47.2697 1.943 46.303C1.26633 45.3363 0.928 44.244 0.928 43.026C0.928 41.9433 1.20833 40.9573 1.769 40.068C2.349 39.1787 3.248 38.4343 4.466 37.835C5.684 37.2163 7.25967 36.8103 9.193 36.617L10.324 38.734C9.048 39.0047 8.05233 39.459 7.337 40.097C6.641 40.7157 6.293 41.46 6.293 42.33C6.293 42.8907 6.45733 43.4127 6.786 43.896C7.11467 44.36 7.569 44.7273 8.149 44.998C8.74833 45.2687 9.454 45.404 10.266 45.404C11.6773 45.404 12.847 45.1333 13.775 44.592C14.703 44.0507 15.5053 43.3353 16.182 42.446L20.242 37.11ZM33.8935 32.47H39.3455L40.3315 38.415V49H34.9375V37.98L33.8935 32.47ZM48.2195 32.238V36.878C47.6975 36.762 47.1755 36.675 46.6535 36.617C46.1509 36.559 45.6869 36.53 45.2615 36.53C44.3335 36.53 43.4925 36.7233 42.7385 37.11C42.0039 37.4773 41.4142 38.067 40.9695 38.879C40.5442 39.691 40.3315 40.7447 40.3315 42.04L39.2585 40.706C39.3939 39.5267 39.6162 38.415 39.9255 37.371C40.2349 36.327 40.6602 35.4087 41.2015 34.616C41.7429 33.804 42.4099 33.166 43.2025 32.702C44.0145 32.238 44.9909 32.006 46.1315 32.006C46.4602 32.006 46.8082 32.0253 47.1755 32.064C47.5429 32.1027 47.8909 32.1607 48.2195 32.238ZM59.3959 49.464C57.4239 49.464 55.6549 49.0967 54.0889 48.362C52.5422 47.6273 51.3242 46.6027 50.4349 45.288C49.5455 43.9733 49.1009 42.4363 49.1009 40.677C49.1009 38.9563 49.5262 37.4483 50.3769 36.153C51.2275 34.8577 52.3972 33.8427 53.8859 33.108C55.3939 32.3733 57.0952 32.006 58.9899 32.006C60.9232 32.006 62.5859 32.4313 63.9779 33.282C65.3699 34.1327 66.4429 35.3313 67.1969 36.878C67.9509 38.4247 68.3279 40.242 68.3279 42.33H53.4219V38.937H65.3699L63.4269 40.155C63.3689 39.2463 63.1465 38.4827 62.7599 37.864C62.3925 37.226 61.8995 36.7427 61.2809 36.414C60.6622 36.066 59.9275 35.892 59.0769 35.892C58.1489 35.892 57.3465 36.0757 56.6699 36.443C55.9932 36.8103 55.4615 37.3227 55.0749 37.98C54.7075 38.6373 54.5239 39.401 54.5239 40.271C54.5239 41.373 54.7655 42.3107 55.2489 43.084C55.7515 43.8573 56.4669 44.447 57.3949 44.853C58.3422 45.259 59.4925 45.462 60.8459 45.462C62.0832 45.462 63.3205 45.2977 64.5579 44.969C65.7952 44.621 66.9069 44.1377 67.8929 43.519V47.028C66.7715 47.8013 65.4859 48.4007 64.0359 48.826C62.6052 49.2513 61.0585 49.464 59.3959 49.464ZM86.0335 49L85.3085 42.997L86.0915 40.735L85.3085 38.502L86.0335 32.47H91.6305L90.6155 40.735L91.6305 49H86.0335ZM87.3675 40.735C87.0775 42.4943 86.5265 44.0313 85.7145 45.346C84.9025 46.6413 83.8778 47.6563 82.6405 48.391C81.4032 49.1063 80.0112 49.464 78.4645 49.464C76.8405 49.464 75.4098 49.0967 74.1725 48.362C72.9545 47.6273 71.9975 46.6123 71.3015 45.317C70.6055 44.0023 70.2575 42.475 70.2575 40.735C70.2575 38.995 70.6055 37.4773 71.3015 36.182C71.9975 34.8673 72.9545 33.8427 74.1725 33.108C75.4098 32.3733 76.8405 32.006 78.4645 32.006C80.0112 32.006 81.4032 32.3733 82.6405 33.108C83.8778 33.8233 84.9025 34.8287 85.7145 36.124C86.5458 37.4193 87.0968 38.9563 87.3675 40.735ZM75.7095 40.735C75.7095 41.6243 75.8932 42.417 76.2605 43.113C76.6278 43.7897 77.1305 44.331 77.7685 44.737C78.4258 45.1237 79.1798 45.317 80.0305 45.317C80.8812 45.317 81.6835 45.1237 82.4375 44.737C83.2108 44.331 83.8875 43.7897 84.4675 43.113C85.0475 42.417 85.4825 41.6243 85.7725 40.735C85.4825 39.8457 85.0475 39.0627 84.4675 38.386C83.8875 37.69 83.2108 37.1487 82.4375 36.762C81.6835 36.356 80.8812 36.153 80.0305 36.153C79.1798 36.153 78.4258 36.356 77.7685 36.762C77.1305 37.1487 76.6278 37.69 76.2605 38.386C75.8932 39.0627 75.7095 39.8457 75.7095 40.735ZM94.6873 26.67H100.052V49H94.6873V26.67ZM103.523 32.238L106.191 32.789L108.888 32.238V49H103.523V32.238ZM106.22 30.73C105.273 30.73 104.5 30.4883 103.9 30.005C103.301 29.5023 103.001 28.845 103.001 28.033C103.001 27.2017 103.301 26.5443 103.9 26.061C104.5 25.5777 105.273 25.336 106.22 25.336C107.187 25.336 107.96 25.5777 108.54 26.061C109.12 26.5443 109.41 27.2017 109.41 28.033C109.41 28.845 109.12 29.5023 108.54 30.005C107.96 30.4883 107.187 30.73 106.22 30.73ZM110.764 36.472V34.123L114.186 32.876L116.506 28.062H119.58V32.47H126.714V36.472H119.58V41.924C119.58 43.1613 119.831 44.0313 120.334 44.534C120.837 45.0173 121.736 45.259 123.031 45.259C123.862 45.259 124.587 45.1913 125.206 45.056C125.844 44.9013 126.443 44.6983 127.004 44.447V48.536C126.424 48.768 125.66 48.9807 124.713 49.174C123.785 49.3673 122.818 49.464 121.813 49.464C120.054 49.464 118.604 49.1837 117.463 48.623C116.342 48.0623 115.51 47.2793 114.969 46.274C114.447 45.2493 114.186 44.0507 114.186 42.678V36.472H110.764ZM134.284 54.249C133.124 54.249 132.09 54.104 131.181 53.814C130.292 53.524 129.422 53.089 128.571 52.509V48.71C129.441 49.2707 130.253 49.667 131.007 49.899C131.78 50.1503 132.621 50.276 133.53 50.276C134.342 50.276 135.048 50.102 135.647 49.754C136.266 49.406 136.778 48.768 137.184 47.84L143.796 32.47H149.509L141.418 49.522C140.877 50.682 140.229 51.61 139.475 52.306C138.721 53.002 137.899 53.495 137.01 53.785C136.14 54.0943 135.231 54.249 134.284 54.249ZM134.922 47.695L127.759 32.47H133.675L140.113 47.695H134.922Z" fill="white"/>
</svg>
