<?xml version="1.0" encoding="utf-8"?>
<!-- Generator: Adobe Illustrator 28.0.0, SVG Export Plug-In . SVG Version: 6.00 Build 0)  -->
<svg version="1.1" id="Layer_1" xmlns="http://www.w3.org/2000/svg" xmlns:xlink="http://www.w3.org/1999/xlink" x="0px" y="0px"
	 viewBox="0 0 242 242" style="enable-background:new 0 0 242 242;" xml:space="preserve">
<style type="text/css">
	.st0{fill:#FFFFFF;}
</style>
<path class="st0" d="M138.5,122.5l-31,18c-2.6,1.5-6-0.3-6-3.4V101c0-3.1,3.4-4.9,6-3.4l31,18c0.6,0.3,1.1,0.8,1.4,1.4
	c0.3,0.6,0.5,1.3,0.5,2c0,0.7-0.2,1.4-0.5,2C139.6,121.6,139.1,122.1,138.5,122.5z"/>
<g>
	<path class="st0" d="M107.4,219.3l-2.2,5.2l-1.3,5.5l-7.3-2.4c-1-0.3-1.8-0.8-2.2-1.5c-0.4-0.7-0.5-1.4-0.2-2.3
		c0.3-0.8,0.8-1.3,1.5-1.6c0.7-0.3,1.6-0.3,2.6,0l-0.3,0.3c-1.2-0.4-2.1-1-2.6-1.7c-0.5-0.7-0.6-1.5-0.3-2.3
		c0.3-0.9,0.9-1.5,1.7-1.8c0.8-0.3,1.8-0.3,3,0.1L107.4,219.3z M105.5,219.2l0.4,1l-6.2-2c-0.7-0.2-1.3-0.3-1.8-0.1
		c-0.5,0.2-0.8,0.5-1,1.1c-0.2,0.6-0.1,1.1,0.2,1.5c0.3,0.5,1,0.8,1.9,1.1l5.3,1.7l-0.4,1.3l-5.2-1.7c-0.7-0.2-1.3-0.2-1.7,0
		c-0.5,0.2-0.8,0.6-1,1.1c-0.2,0.5-0.1,0.9,0.1,1.3c0.2,0.4,0.7,0.7,1.3,0.9l5.7,1.9l-0.9,0.6l1.1-5L105.5,219.2z"/>
	<path class="st0" d="M94.8,215.1L90,225.3l-1.6-0.8l4.4-9.4l0.6,0.4l-12.2,5.7l-2.2-1l4.8-10.2l1.6,0.8l-4.5,9.5l-0.6-0.4l12.3-5.7
		L94.8,215.1z"/>
	<path class="st0" d="M68.7,202.3l2.4-3.7l1.4,0.9l-1.6,2.5l10.1,6.5l1.6-2.5l1.4,0.9l-2.4,3.7l-2.1-1.3l-0.4-0.3l-7.4-4.8l-0.5-0.3
		L68.7,202.3z M74.1,217.3l-8.9-5.7l5.8-9l1.5,1l-5.5,8.5l-0.3-1.2l7.2,4.6l-1,0.1c0.3-0.5,0.6-1.1,0.8-1.6c0.3-0.5,0.6-1,0.8-1.4
		c1.1-1.7,2.1-2.9,3.2-3.6c1-0.7,1.9-0.8,2.6-0.4l0.3,1c-1.4,0.1-3,1.5-4.7,4.3c-0.3,0.5-0.7,1.1-1,1.7
		C74.7,216.2,74.4,216.8,74.1,217.3z"/>
	<path class="st0" d="M64.1,196.1c1,0.8,1.7,1.8,2.2,2.8c0.4,1,0.6,2.1,0.5,3.1c-0.1,1-0.6,2-1.3,2.9c-0.8,0.9-1.6,1.5-2.6,1.8
		c-1,0.3-2,0.4-3,0.1c-1-0.2-2-0.7-3-1.5c-0.9-0.8-1.6-1.7-1.9-2.7c-0.3-1-0.4-2-0.2-3.1c0.2-1.1,0.8-2.1,1.6-3.1l8.4,7l-0.9,1.1
		l-7.8-6.5l1.3,0.2c-0.5,0.7-0.8,1.4-0.9,2.1c-0.1,0.7-0.1,1.4,0.2,2c0.3,0.6,0.7,1.2,1.3,1.8c0.7,0.6,1.4,0.9,2.1,1.1
		c0.7,0.2,1.4,0.1,2.1-0.1c0.7-0.3,1.3-0.7,1.9-1.4c0.6-0.7,0.9-1.4,1-2.2c0.1-0.8,0-1.5-0.3-2.3c-0.3-0.8-0.9-1.5-1.7-2.1
		c-0.7-0.6-1.5-1.1-2.4-1.4c-0.9-0.3-1.8-0.5-2.6-0.6l0.9-1.1c0.9,0,1.8,0.2,2.8,0.6C62.5,194.9,63.4,195.4,64.1,196.1z"/>
	<path class="st0" d="M54.7,187.1c0.9,1,1.5,2,1.9,3.1c0.3,1.1,0.4,2.1,0.1,3.1c-0.3,1-0.8,1.9-1.7,2.7c-0.9,0.8-1.8,1.3-2.8,1.5
		c-1,0.2-2.1,0.1-3.1-0.3c-1.1-0.4-2-1.1-2.9-2c-0.9-1-1.5-2-1.9-3.1c-0.3-1.1-0.4-2.1-0.1-3.1c0.2-1,0.8-1.9,1.7-2.7
		c0.8-0.8,1.8-1.3,2.8-1.5c1-0.2,2.1-0.1,3.1,0.3S53.7,186.1,54.7,187.1z M53.5,188.1c-0.7-0.7-1.4-1.2-2.1-1.5
		c-0.8-0.3-1.5-0.3-2.2-0.2c-0.8,0.2-1.5,0.5-2.1,1.1c-0.6,0.6-1.1,1.3-1.3,2c-0.2,0.7-0.2,1.5,0,2.3c0.2,0.8,0.7,1.5,1.4,2.2
		c0.7,0.7,1.4,1.2,2.1,1.5c0.8,0.3,1.5,0.3,2.2,0.2c0.7-0.2,1.4-0.5,2.1-1.2c0.7-0.6,1.1-1.3,1.3-2c0.2-0.7,0.2-1.5,0-2.3
		C54.7,189.6,54.2,188.8,53.5,188.1z"/>
	<path class="st0" d="M43,172.4c0.7,1.1,1.2,2.2,1.3,3.3c0.1,1.1,0,2.1-0.4,3.1c-0.4,1-1.1,1.8-2.1,2.4c-1,0.7-2,1-3,1
		c-1,0-2-0.2-3-0.8c-1-0.6-1.8-1.4-2.6-2.5c-0.7-1.1-1.2-2.2-1.3-3.3c-0.1-1.1,0-2.1,0.4-3.1c0.4-1,1.1-1.8,2.1-2.4c1-0.6,2-1,3-1
		c1.1,0,2.1,0.2,3,0.8C41.4,170.4,42.3,171.3,43,172.4z M41.8,173.2c-0.5-0.8-1.2-1.4-1.9-1.8c-0.7-0.4-1.4-0.6-2.2-0.5
		c-0.8,0-1.5,0.3-2.3,0.8c-0.7,0.5-1.3,1.1-1.6,1.8c-0.3,0.7-0.4,1.4-0.3,2.2c0.1,0.8,0.4,1.6,1,2.4c0.5,0.8,1.2,1.4,1.9,1.8
		c0.7,0.4,1.4,0.6,2.2,0.5c0.8,0,1.5-0.3,2.2-0.8c0.7-0.5,1.3-1.1,1.6-1.8c0.3-0.7,0.4-1.4,0.3-2.2C42.6,174.8,42.3,174,41.8,173.2z
		"/>
	<path class="st0" d="M36.2,161.4l-10.3,4.6l-0.8-1.7l8.7-4l0,0.6l-11.8-3.2l-0.9-1.9l14.2,4L36.2,161.4z M32.3,152.9l-3.6,5.7
		l-1.8-0.5l4.4-7.2L32.3,152.9z"/>
	<path class="st0" d="M33.6,146.2c0.2,0.5,0.3,1.1,0.3,1.5c0,0.5-0.1,1-0.2,1.5l-1.4,0.4c0.1-0.5,0.2-1,0.2-1.4
		c0-0.4-0.1-0.9-0.2-1.4c-0.2-0.5-0.5-1-0.8-1.3c-0.4-0.3-0.9-0.5-1.5-0.6L17,143.2l-0.6-1.9l13.6,2.1c0.6,0.1,1.2,0.3,1.6,0.5
		c0.5,0.2,0.9,0.6,1.2,0.9C33.2,145.2,33.4,145.7,33.6,146.2z M29.3,145.6l-8.7,8.4l-0.6-1.9l8.8-8.3L29.3,145.6z"/>
	<path class="st0" d="M15.9,139l-0.3-1.8l4.2-0.8l0.4,0l1.8-0.3l0.6-0.2l7.4-1.4l0.3,1.8L15.9,139z M21.2,137
		c-1.2-0.1-2.3-0.3-3.3-0.7c-1-0.4-1.8-1-2.4-1.8c-0.6-0.8-1.1-1.7-1.3-2.7c-0.2-1.1-0.1-2.1,0.2-3c0.3-0.9,0.9-1.7,1.7-2.3
		c0.8-0.6,1.7-1.1,2.9-1.3c1.1-0.2,2.2-0.2,3.2,0.2c1,0.3,1.8,0.8,2.4,1.6c0.6,0.7,1.1,1.7,1.3,2.8c0.2,1,0.1,2-0.2,2.9
		c-0.3,0.9-0.9,1.8-1.6,2.5C23.2,135.9,22.3,136.5,21.2,137z M19.3,127c-0.8,0.2-1.5,0.5-2.1,0.9c-0.6,0.5-1,1-1.2,1.7
		c-0.3,0.7-0.3,1.4-0.2,2.2c0.1,0.8,0.5,1.5,1,2.1c0.5,0.6,1.1,1.1,1.8,1.5c0.7,0.4,1.6,0.7,2.5,0.9c0.8-0.5,1.4-1.1,2-1.7
		c0.5-0.6,0.9-1.3,1.2-2c0.2-0.7,0.3-1.5,0.1-2.3c-0.1-0.8-0.5-1.4-0.9-2c-0.5-0.5-1.1-0.9-1.8-1.1C20.9,126.9,20.2,126.8,19.3,127z
		"/>
	<path class="st0" d="M19.3,110.4c0.9,0.1,1.7,0.4,2.4,1c0.7,0.5,1.3,1.2,1.7,2.1c0.4,0.9,0.7,1.8,0.8,2.9c0.1,1.3-0.1,2.4-0.5,3.4
		c-0.4,1-1.1,1.8-1.9,2.4c-0.9,0.6-1.9,0.9-3,1c-1.2,0.1-2.2-0.1-3.1-0.6c-0.9-0.5-1.7-1.2-2.2-2.1c-0.5-0.9-0.9-2-0.9-3.3
		c-0.1-1.1,0.1-2.1,0.4-3c0.3-0.9,0.8-1.7,1.4-2.3c0.6-0.6,1.4-1,2.3-1.2l0.1,1.9c-0.9,0.3-1.6,0.8-2.1,1.6
		c-0.5,0.8-0.7,1.8-0.6,2.9c0.1,0.9,0.3,1.7,0.7,2.3c0.4,0.6,0.9,1.1,1.6,1.5c0.7,0.3,1.4,0.5,2.3,0.4c0.9-0.1,1.7-0.3,2.3-0.7
		c0.6-0.4,1.1-1,1.4-1.6c0.3-0.7,0.4-1.5,0.4-2.4c-0.1-1.1-0.4-2.1-1-2.8c-0.6-0.8-1.3-1.2-2.3-1.3L19.3,110.4z"/>
	<path class="st0" d="M24.3,102.1c-0.1,1.3-0.4,2.4-1,3.4c-0.6,1-1.3,1.7-2.2,2.2c-0.9,0.5-2,0.7-3.1,0.6c-1.2-0.1-2.2-0.4-3-1
		c-0.8-0.6-1.5-1.4-1.9-2.3c-0.4-1-0.6-2.1-0.5-3.3c0.1-1.2,0.4-2.3,1-3.1c0.6-0.9,1.4-1.5,2.4-2c1-0.4,2.1-0.6,3.4-0.6L18.6,107
		l-1.5-0.1l0.6-10.1l0.6,1.1c-0.8,0-1.6,0.1-2.2,0.5s-1.1,0.8-1.5,1.4c-0.4,0.6-0.6,1.3-0.6,2.1c-0.1,0.9,0.1,1.7,0.4,2.3
		c0.3,0.7,0.8,1.2,1.4,1.6c0.6,0.4,1.4,0.6,2.2,0.7c0.9,0.1,1.7-0.1,2.4-0.5c0.7-0.4,1.2-0.9,1.6-1.6c0.4-0.7,0.6-1.6,0.7-2.6
		c0.1-0.9,0-1.8-0.3-2.7c-0.3-0.9-0.6-1.7-1.1-2.5l1.4,0.1c0.5,0.7,0.9,1.6,1.2,2.6C24.3,100.2,24.4,101.1,24.3,102.1z"/>
</g>
</svg>
