<svg width="212" height="212" viewBox="0 0 212 212" fill="none" xmlns="http://www.w3.org/2000/svg">
<path d="M205.413 117.016C204.664 116.848 204.016 116.499 203.469 115.968C202.921 115.449 202.506 114.802 202.222 114.026C201.939 113.25 201.823 112.405 201.876 111.49C201.938 110.429 202.201 109.503 202.666 108.714C203.142 107.926 203.766 107.322 204.538 106.902C205.32 106.494 206.203 106.318 207.185 106.375C208.167 106.432 209.018 106.708 209.737 107.203C210.467 107.71 211.017 108.382 211.387 109.22C211.758 110.057 211.912 111.007 211.851 112.068C211.798 112.983 211.586 113.81 211.215 114.547C210.855 115.286 210.373 115.881 209.769 116.333C209.164 116.797 208.475 117.069 207.7 117.148L207.793 115.539C208.593 115.415 209.238 115.028 209.729 114.376C210.231 113.737 210.509 112.943 210.564 111.994C210.608 111.226 210.495 110.545 210.223 109.951C209.951 109.369 209.548 108.903 209.013 108.555C208.489 108.207 207.849 108.012 207.093 107.968C206.336 107.924 205.672 108.044 205.101 108.328C204.529 108.613 204.075 109.028 203.737 109.575C203.41 110.134 203.225 110.798 203.18 111.566C203.125 112.526 203.309 113.352 203.733 114.046C204.157 114.75 204.748 115.204 205.507 115.406L205.413 117.016Z" fill="white"/>
<path d="M201.669 118.687L211.029 120.584L210.571 122.846L200.939 125.534L201.101 124.736L208.93 130.946L208.472 133.208L199.112 131.311L199.405 129.864L208.333 131.674L208.228 132.189L200.237 125.756L200.543 124.242L210.391 121.425L210.287 121.94L201.376 120.134L201.669 118.687Z" fill="white"/>
<path d="M196.517 138.231C196.89 137.175 197.418 136.312 198.099 135.641C198.777 134.98 199.552 134.553 200.424 134.358C201.297 134.163 202.197 134.229 203.125 134.558C204.063 134.89 204.805 135.405 205.35 136.102C205.895 136.799 206.223 137.617 206.335 138.557C206.442 139.507 206.309 140.51 205.936 141.566C205.558 142.632 205.031 143.496 204.354 144.156C203.676 144.816 202.906 145.246 202.044 145.444C201.178 145.654 200.276 145.593 199.338 145.26C198.411 144.932 197.671 144.412 197.119 143.7C196.563 143 196.23 142.179 196.118 141.24C196.007 140.3 196.14 139.297 196.517 138.231ZM197.748 138.667C197.469 139.456 197.366 140.188 197.44 140.862C197.524 141.54 197.772 142.126 198.185 142.62C198.594 143.125 199.156 143.504 199.87 143.757C200.574 144.006 201.244 144.063 201.879 143.928C202.511 143.803 203.073 143.504 203.564 143.03C204.056 142.556 204.441 141.925 204.72 141.135C204.996 140.357 205.093 139.623 205.013 138.935C204.929 138.257 204.681 137.671 204.268 137.177C203.855 136.683 203.296 136.311 202.593 136.062C201.878 135.809 201.205 135.744 200.574 135.869C199.942 135.993 199.38 136.292 198.889 136.766C198.404 137.255 198.024 137.888 197.748 138.667Z" fill="white"/>
<path d="M201 151.51L200.318 152.914L192.2 148.969L192.882 147.565L201 151.51ZM203.281 148.016L198.982 156.869L197.837 156.312L202.137 147.459L203.281 148.016Z" fill="white"/>
<path d="M198.065 158.547L197.222 159.861L194.181 157.91L193.97 157.673L192.671 156.839L192.211 156.645L186.828 153.191L187.67 151.877L198.065 158.547ZM193.604 156.672C194.307 157.419 194.836 158.209 195.189 159.04C195.537 159.882 195.691 160.72 195.652 161.555C195.608 162.4 195.347 163.194 194.871 163.937C194.364 164.727 193.739 165.314 192.996 165.698C192.253 166.081 191.458 166.243 190.61 166.182C189.756 166.132 188.91 165.837 188.072 165.3C187.244 164.769 186.624 164.122 186.212 163.36C185.804 162.614 185.614 161.821 185.643 160.979C185.682 160.144 185.954 159.331 186.461 158.54C186.937 157.798 187.55 157.23 188.299 156.837C189.042 156.453 189.868 156.244 190.777 156.209C191.69 156.19 192.632 156.344 193.604 156.672ZM188.933 163.957C189.542 164.348 190.163 164.565 190.794 164.607C191.419 164.659 192.004 164.543 192.548 164.261C193.095 163.993 193.549 163.579 193.909 163.017C194.275 162.446 194.481 161.832 194.526 161.175C194.574 160.534 194.484 159.878 194.256 159.207C194.028 158.537 193.688 157.882 193.238 157.244C192.47 157.1 191.733 157.065 191.029 157.137C190.324 157.209 189.686 157.397 189.114 157.703C188.546 158.023 188.079 158.469 187.712 159.041C187.352 159.603 187.16 160.185 187.136 160.788C187.116 161.407 187.259 161.989 187.567 162.536C187.868 163.093 188.324 163.566 188.933 163.957Z" fill="white"/>
<path d="M179.571 167.822C180.273 166.979 181.057 166.365 181.921 165.981C182.787 165.613 183.662 165.481 184.547 165.585C185.433 165.705 186.254 166.08 187.01 166.71C187.775 167.347 188.299 168.079 188.583 168.904C188.867 169.73 188.913 170.585 188.72 171.47C188.528 172.355 188.099 173.198 187.433 173.998C186.774 174.789 186.025 175.335 185.185 175.636C184.346 175.938 183.475 175.985 182.572 175.778C181.672 175.587 180.804 175.144 179.97 174.449L185.898 167.33L186.85 168.122L181.345 174.733L181.501 173.671C182.07 174.101 182.653 174.365 183.248 174.463C183.843 174.562 184.415 174.502 184.966 174.283C185.516 174.064 186.012 173.689 186.453 173.159C186.931 172.585 187.23 171.988 187.35 171.366C187.479 170.752 187.436 170.149 187.221 169.559C187 168.976 186.606 168.45 186.042 167.979C185.451 167.487 184.826 167.194 184.167 167.102C183.508 167.009 182.859 167.109 182.219 167.4C181.579 167.691 180.984 168.167 180.434 168.828C179.934 169.428 179.546 170.098 179.268 170.838C178.983 171.587 178.822 172.337 178.786 173.087L177.848 172.305C177.859 171.549 178.017 170.767 178.321 169.96C178.633 169.161 179.05 168.448 179.571 167.822Z" fill="white"/>
<path d="M179.778 181.207L178.658 182.294L172.371 175.818L173.49 174.731L179.778 181.207ZM183.113 178.699L176.056 185.557L175.169 184.644L182.227 177.786L183.113 178.699Z" fill="white"/>
<path d="M168.809 179.153L174.733 186.648L173.509 187.616L167.89 180.507L168.846 180.704L165.346 183.472C164.814 183.893 164.498 184.359 164.397 184.871C164.304 185.392 164.44 185.883 164.805 186.344C165.177 186.815 165.623 187.06 166.144 187.081C166.672 187.11 167.202 186.915 167.734 186.494L171.141 183.799L171.888 184.744L168.375 187.523C167.798 187.979 167.216 188.274 166.629 188.406C166.033 188.546 165.468 188.524 164.934 188.341C164.4 188.158 163.94 187.822 163.554 187.334C163.161 186.837 162.937 186.307 162.882 185.745C162.827 185.183 162.936 184.628 163.21 184.08C163.474 183.539 163.895 183.04 164.471 182.584L168.809 179.153Z" fill="white"/>
<path d="M144.778 196.996C146.603 196.215 148.728 197.042 149.521 198.899C150.314 200.756 149.443 202.863 147.618 203.643C145.793 204.424 143.656 203.566 142.876 201.74C142.089 199.899 142.953 197.776 144.778 196.996ZM145.058 197.651C143.561 198.291 142.911 200.009 143.531 201.46C144.164 202.942 145.841 203.628 147.338 202.988C148.789 202.368 149.506 200.677 148.866 199.179C148.226 197.681 146.509 197.031 145.058 197.651Z" fill="white"/>
<path d="M113.803 205.855C113.828 205.087 114.049 204.385 114.467 203.747C114.873 203.112 115.431 202.582 116.139 202.158C116.848 201.733 117.656 201.461 118.564 201.342C119.618 201.203 120.576 201.288 121.438 201.596C122.301 201.916 123.012 202.416 123.569 203.095C124.116 203.788 124.454 204.622 124.583 205.598C124.711 206.574 124.6 207.461 124.249 208.261C123.888 209.073 123.332 209.74 122.579 210.261C121.827 210.782 120.923 211.113 119.869 211.251C118.961 211.371 118.11 211.318 117.316 211.092C116.523 210.877 115.848 210.515 115.291 210.006C114.722 209.499 114.326 208.873 114.102 208.126L115.7 207.915C115.972 208.678 116.473 209.24 117.205 209.6C117.927 209.973 118.759 210.097 119.701 209.973C120.463 209.872 121.111 209.633 121.642 209.255C122.163 208.878 122.544 208.394 122.786 207.803C123.029 207.223 123.101 206.558 123.002 205.806C122.903 205.055 122.66 204.425 122.274 203.917C121.888 203.408 121.394 203.04 120.794 202.811C120.184 202.595 119.497 202.537 118.735 202.637C117.782 202.763 117.005 203.099 116.404 203.646C115.792 204.195 115.457 204.861 115.401 205.644L113.803 205.855Z" fill="white"/>
<path d="M111.24 202.446L111.129 212L108.822 211.973L104.379 203.012L105.193 203.021L100.561 211.878L98.2546 211.851L98.3652 202.297L99.8409 202.314L99.7354 211.427L99.2095 211.421L104.031 202.363L105.574 202.381L110.184 211.531L109.659 211.525L109.764 202.429L111.24 202.446Z" fill="white"/>
<path d="M91.0363 201.004C92.1427 201.176 93.0884 201.534 93.8735 202.08C94.6474 202.624 95.211 203.307 95.5641 204.129C95.9172 204.95 96.0183 205.848 95.8673 206.82C95.7147 207.804 95.3464 208.629 94.7625 209.293C94.1787 209.958 93.4356 210.433 92.5333 210.716C91.6198 210.998 90.6099 211.053 89.5035 210.881C88.386 210.707 87.4403 210.349 86.6664 209.805C85.8924 209.261 85.328 208.584 84.9732 207.773C84.6071 206.961 84.5005 206.062 84.6531 205.079C84.8041 204.106 85.1779 203.283 85.7747 202.608C86.3603 201.932 87.1043 201.452 88.0066 201.169C88.9089 200.885 89.9188 200.83 91.0363 201.004ZM90.8359 202.295C90.009 202.167 89.2712 202.201 88.6227 202.398C87.9724 202.606 87.4427 202.959 87.0336 203.456C86.6133 203.952 86.3451 204.574 86.2288 205.323C86.1143 206.061 86.1822 206.73 86.4324 207.33C86.6715 207.928 87.0693 208.425 87.626 208.821C88.1826 209.216 88.8743 209.478 89.7013 209.607C90.5171 209.733 91.2557 209.693 91.9172 209.487C92.5675 209.279 93.0972 208.926 93.5063 208.429C93.9154 207.931 94.1772 207.314 94.2917 206.576C94.4079 205.827 94.3465 205.153 94.1074 204.555C93.8683 203.957 93.4705 203.46 92.9139 203.064C92.3444 202.678 91.6517 202.422 90.8359 202.295Z" fill="white"/>
<path d="M78.8502 207.878L77.3439 207.47L79.7044 198.756L81.2107 199.165L78.8502 207.878ZM82.7077 209.469L73.2114 206.895L73.5442 205.666L83.0404 208.241L82.7077 209.469Z" fill="white"/>
<path d="M71.534 206.339L70.0855 205.758L71.4306 202.403L71.623 202.151L72.1976 200.718L72.302 200.23L74.6828 194.292L76.1312 194.873L71.534 206.339ZM72.537 201.604C71.9356 202.435 71.2598 203.103 70.5096 203.606C69.749 204.105 68.9549 204.415 68.1273 204.534C67.2893 204.648 66.461 204.541 65.6423 204.213C64.7711 203.863 64.0775 203.36 63.5615 202.701C63.0455 202.043 62.7375 201.292 62.6375 200.447C62.527 199.599 62.657 198.712 63.0275 197.788C63.3938 196.875 63.9121 196.144 64.5826 195.596C65.2383 195.055 65.982 194.719 66.8137 194.59C67.6412 194.471 68.4906 194.586 69.3618 194.936C70.1805 195.264 70.8531 195.76 71.3795 196.422C71.8955 197.08 72.256 197.853 72.461 198.739C72.6512 199.632 72.6766 200.587 72.537 201.604ZM64.5075 198.382C64.238 199.054 64.1419 199.704 64.219 200.332C64.2856 200.956 64.5087 201.509 64.8884 201.991C65.2533 202.478 65.7454 202.846 66.3647 203.095C66.9944 203.348 67.6359 203.434 68.2891 203.355C68.9276 203.282 69.5546 203.071 70.1703 202.72C70.7859 202.37 71.3649 201.914 71.9072 201.351C71.9038 200.57 71.8005 199.84 71.5975 199.161C71.3944 198.482 71.0894 197.89 70.6825 197.386C70.2608 196.887 69.7351 196.512 69.1054 196.259C68.4861 196.011 67.8782 195.931 67.2817 196.021C66.6705 196.117 66.1253 196.368 65.6461 196.773C65.1565 197.174 64.7769 197.71 64.5075 198.382Z" fill="white"/>
<path d="M58.9966 189.9C59.9552 190.434 60.7033 191.09 61.241 191.868C61.7633 192.651 62.0554 193.487 62.1174 194.376C62.164 195.27 61.9482 196.146 61.4697 197.006C60.9858 197.876 60.3648 198.527 59.6066 198.96C58.8484 199.392 58.0167 199.596 57.1116 199.571C56.2066 199.547 55.2994 199.281 54.3903 198.775C53.491 198.274 52.8154 197.639 52.3634 196.87C51.9113 196.1 51.7032 195.253 51.739 194.328C51.7594 193.407 52.0336 192.472 52.5615 191.523L60.6548 196.028L60.0527 197.111L52.5374 192.927L53.6101 192.883C53.2933 193.523 53.1418 194.144 53.1557 194.747C53.1696 195.351 53.335 195.902 53.6521 196.403C53.9692 196.903 54.4292 197.321 55.032 197.656C55.6842 198.019 56.3267 198.202 56.9594 198.205C57.5865 198.217 58.1705 198.063 58.7111 197.743C59.2419 197.417 59.686 196.933 60.0434 196.29C60.4173 195.618 60.5886 194.949 60.5572 194.284C60.5258 193.62 60.3076 193 59.9027 192.425C59.4978 191.85 58.9198 191.353 58.1688 190.935C57.4869 190.555 56.7566 190.298 55.9779 190.162C55.1894 190.021 54.4232 190.002 53.6795 190.106L54.2734 189.038C55.0182 188.909 55.8151 188.919 56.6641 189.068C57.5076 189.227 58.2851 189.504 58.9966 189.9Z" fill="white"/>
<path d="M45.8718 192.571L44.5965 191.671L49.7979 184.293L51.0732 185.193L45.8718 192.571ZM48.9511 195.387L40.9109 189.714L41.6442 188.674L49.6844 194.347L48.9511 195.387Z" fill="white"/>
<path d="M45.8792 181.421L39.6081 188.627L38.4311 187.602L44.3792 180.767L44.3624 181.743L40.9976 178.812C40.4859 178.366 39.9693 178.141 39.448 178.137C38.9193 178.142 38.4619 178.366 38.0757 178.81C37.6821 179.262 37.5232 179.746 37.599 180.262C37.6673 180.786 37.9574 181.272 38.4691 181.717L41.7444 184.57L40.9535 185.479L37.5759 182.537C37.0215 182.054 36.625 181.536 36.3864 180.983C36.1392 180.423 36.0565 179.863 36.1381 179.305C36.2197 178.746 36.4647 178.231 36.8731 177.762C37.2889 177.284 37.7679 176.967 38.3101 176.809C38.8523 176.651 39.4177 176.656 40.0065 176.824C40.5867 176.984 41.154 177.306 41.7084 177.788L45.8792 181.421Z" fill="white"/>
<path d="M23.9613 161.191C25.0693 162.839 24.6556 165.081 22.9808 166.208C21.306 167.336 19.074 166.875 17.9659 165.227C16.8579 163.58 17.2998 161.319 18.9464 160.211C20.6071 159.093 22.8532 159.544 23.9613 161.191ZM23.3702 161.589C22.461 160.238 20.653 159.921 19.3441 160.802C18.0071 161.702 17.6478 163.478 18.557 164.83C19.4378 166.139 21.232 166.527 22.5831 165.617C23.9341 164.708 24.2509 162.899 23.3702 161.589Z" fill="white"/>
<path d="M9.4576 132.441C10.2163 132.323 10.9472 132.41 11.6505 132.703C12.3503 132.985 12.9743 133.434 13.5224 134.052C14.0706 134.67 14.4877 135.414 14.7738 136.284C15.1057 137.295 15.2001 138.252 15.0569 139.157C14.9029 140.065 14.5438 140.856 13.9795 141.529C13.4009 142.196 12.6443 142.683 11.7096 142.99C10.775 143.298 9.88247 143.353 9.03215 143.156C8.16754 142.952 7.40936 142.529 6.75758 141.886C6.10581 141.243 5.61394 140.416 5.28198 139.406C4.99592 138.535 4.89037 137.689 4.96532 136.866C5.02952 136.047 5.25965 135.316 5.65571 134.674C6.04824 134.021 6.59036 133.515 7.28206 133.157L7.7853 134.688C7.08624 135.097 6.62778 135.694 6.40994 136.48C6.17782 137.259 6.21008 138.1 6.50673 139.003C6.74687 139.734 7.10203 140.326 7.57221 140.778C8.03886 141.22 8.58484 141.505 9.21014 141.633C9.82471 141.764 10.4919 141.712 11.2117 141.475C11.9315 141.238 12.5052 140.883 12.9327 140.409C13.3603 139.935 13.6308 139.381 13.7443 138.749C13.8435 138.109 13.7731 137.423 13.5329 136.692C13.2327 135.779 12.7582 135.077 12.1094 134.588C11.457 134.088 10.7408 133.883 9.96084 133.973L9.4576 132.441Z" fill="white"/>
<path d="M12.405 129.782L3.00376 131.464L2.59754 129.192L10.5637 123.147L10.7071 123.948L1.14293 121.057L0.736719 118.785L10.1379 117.103L10.3978 118.556L1.43074 120.161L1.33814 119.643L11.1355 122.682L11.4073 124.202L3.28735 130.448L3.19476 129.93L12.1451 128.329L12.405 129.782Z" fill="white"/>
<path d="M9.99084 109.473C10.0297 110.592 9.855 111.589 9.46667 112.463C9.07794 113.325 8.51321 114.007 7.77246 114.508C7.03171 115.01 6.16969 115.277 5.18641 115.311C4.19182 115.346 3.31331 115.139 2.55087 114.69C1.78844 114.241 1.1834 113.6 0.735768 112.766C0.287741 111.921 0.044287 110.939 0.0054058 109.82C-0.0338682 108.689 0.140857 107.693 0.52958 106.83C0.918303 105.968 1.47739 105.286 2.20683 104.785C2.93589 104.273 3.79771 104 4.79229 103.965C5.77558 103.931 6.65429 104.144 7.42842 104.604C8.20216 105.052 8.81284 105.693 9.26048 106.527C9.70811 107.36 9.95157 108.342 9.99084 109.473ZM8.68544 109.518C8.65638 108.682 8.48432 107.963 8.16925 107.363C7.84289 106.763 7.39711 106.308 6.83191 106C6.26633 105.68 5.60491 105.533 4.84767 105.559C4.10173 105.585 3.45775 105.778 2.91573 106.136C2.37331 106.483 1.96013 106.967 1.67618 107.588C1.39223 108.21 1.26479 108.939 1.29385 109.775C1.32252 110.601 1.50023 111.319 1.82699 111.93C2.15336 112.53 2.59914 112.984 3.16433 113.293C3.72952 113.602 4.38509 113.743 5.13103 113.717C5.88828 113.691 6.5381 113.504 7.08052 113.157C7.62293 112.81 8.03612 112.326 8.32007 111.704C8.59232 111.072 8.71411 110.344 8.68544 109.518Z" fill="white"/>
<path d="M0.94596 98.592L1.06624 97.0354L10.0639 97.7312L9.94366 99.2878L0.94596 98.592ZM0.10266 102.68L0.860933 92.8664L2.12941 92.9645L1.37113 102.778L0.10266 102.68Z" fill="white"/>
<path d="M1.04893 91.2008L1.34719 89.6683L4.8938 90.3591L5.17731 90.5008L6.69253 90.7959L7.19161 90.8067L13.4689 92.0293L13.1707 93.5618L1.04893 91.2008ZM5.88665 91.2959C4.95736 90.8613 4.17502 90.3228 3.53964 89.6804C2.90643 89.0269 2.45362 88.3047 2.18122 87.514C1.91099 86.7122 1.86016 85.8782 2.02874 85.012C2.20812 84.0903 2.57234 83.3141 3.12138 82.6834C3.67042 82.0527 4.35016 81.6088 5.1606 81.3517C5.9732 81.0835 6.86792 81.0445 7.84477 81.2348C8.81051 81.4229 9.62527 81.7949 10.289 82.3506C10.9439 82.8931 11.413 83.5608 11.6965 84.3536C11.9689 85.1444 12.0154 86.0006 11.836 86.9223C11.6675 87.7885 11.3076 88.5425 10.7564 89.1843C10.2073 89.815 9.51678 90.3144 8.68473 90.6826C7.84374 91.0374 6.91104 91.2419 5.88665 91.2959ZM7.54003 82.8006C6.82959 82.6622 6.17324 82.69 5.57096 82.8839C4.97084 83.0667 4.47013 83.3898 4.06884 83.8534C3.65861 84.3037 3.38973 84.8564 3.26222 85.5116C3.13254 86.1779 3.168 86.8245 3.36859 87.4514C3.56024 88.065 3.88588 88.6414 4.34552 89.1804C4.80515 89.7194 5.36209 90.2025 6.01633 90.6296C6.78295 90.4793 7.48037 90.2405 8.10859 89.9134C8.7368 89.5862 9.26035 89.1753 9.67923 88.6806C10.0892 88.1726 10.359 87.5855 10.4887 86.9192C10.6162 86.264 10.5798 85.6518 10.3795 85.0826C10.1702 84.5001 9.82176 84.0115 9.33403 83.6168C8.84846 83.2111 8.25046 82.939 7.54003 82.8006Z" fill="white"/>
<path d="M14.8048 75.767C14.4622 76.8095 13.9598 77.6685 13.2974 78.3438C12.6278 79.0049 11.8626 79.4499 11.0017 79.6789C10.1335 79.8936 9.23212 79.8473 8.29744 79.5399C7.35202 79.229 6.59541 78.742 6.0276 78.0789C5.4598 77.4159 5.10251 76.6374 4.95574 75.7436C4.80898 74.8498 4.89804 73.9085 5.22294 72.9197C5.54431 71.9417 6.03993 71.1579 6.70981 70.5684C7.37969 69.9788 8.1721 69.6142 9.08703 69.4744C9.99476 69.3204 10.9643 69.413 11.9957 69.7521L9.10336 78.5545L7.92696 78.1676L10.6127 69.994L10.8584 71.0394C10.171 70.8491 9.5325 70.8178 8.94295 70.9455C8.3534 71.0731 7.84311 71.34 7.41208 71.7461C6.98104 72.1521 6.65782 72.683 6.44239 73.3386C6.20931 74.0479 6.15129 74.7136 6.26831 75.3357C6.3746 75.9542 6.63614 76.4987 7.05294 76.9692C7.47328 77.4289 8.0326 77.7736 8.73092 78.0033C9.46148 78.2435 10.1501 78.2854 10.7967 78.1289C11.4434 77.9723 12.0106 77.6408 12.4984 77.1343C12.9863 76.6278 13.3644 75.9662 13.6328 75.1494C13.8765 74.4078 13.9913 73.6417 13.9773 72.8511C13.9668 72.0497 13.8403 71.2936 13.5977 70.5826L14.758 70.9642C15.0256 71.6714 15.1665 72.4561 15.1808 73.3183C15.1844 74.1769 15.0591 74.9932 14.8048 75.767Z" fill="white"/>
<path d="M9.72104 63.3143L10.3663 61.8927L18.5834 65.6255L17.9381 67.047L9.72104 63.3143ZM7.5309 66.867L11.5988 57.905L12.7572 58.4312L8.68932 67.3932L7.5309 66.867Z" fill="white"/>
<path d="M20.6526 61.2249L12.412 56.3957L13.2008 55.0486L21.017 59.629L20.0557 59.7934L22.3107 55.9423C22.6536 55.3566 22.7788 54.8071 22.6861 54.2939C22.5837 53.775 22.2788 53.3668 21.7713 53.0695C21.2542 52.7664 20.7492 52.6999 20.2564 52.87C19.7538 53.0344 19.331 53.4095 18.9881 53.9952L16.7931 57.7437L15.7539 57.1347L18.0175 53.269C18.389 52.6345 18.8242 52.1487 19.323 51.8117C19.8275 51.4649 20.3619 51.2798 20.926 51.2564C21.4902 51.233 22.0406 51.3785 22.5773 51.693C23.1238 52.0132 23.5247 52.4252 23.7802 52.929C24.0357 53.4327 24.1357 53.9895 24.08 54.5994C24.0301 55.1995 23.8193 55.8168 23.4478 56.4513L20.6526 61.2249Z" fill="white"/>
<path d="M36.355 35.9516C34.9414 37.3453 32.6623 37.3528 31.2453 35.9145C29.8283 34.4762 29.8689 32.1964 31.2824 30.8027C32.696 29.409 34.999 29.4257 36.3921 30.8399C37.7972 32.2661 37.7686 34.5579 36.355 35.9516ZM35.8549 35.444C37.0147 34.3004 36.9921 32.4642 35.8847 31.3402C34.7535 30.1919 32.9424 30.1668 31.7825 31.3103C30.6589 32.4182 30.6096 34.2538 31.7527 35.4142C32.8958 36.5745 34.7313 36.5518 35.8549 35.444Z" fill="white"/>
<path d="M62.1775 16.0892C62.4346 16.813 62.4845 17.5478 62.3274 18.2934C62.1802 19.0336 61.8541 19.7304 61.349 20.3838C60.844 21.0372 60.1904 21.5853 59.3884 22.0279C58.4575 22.5416 57.5346 22.8119 56.6195 22.8388C55.699 22.8558 54.8555 22.6494 54.089 22.2197C53.3269 21.7745 52.7082 21.121 52.233 20.2592C51.7578 19.3974 51.538 18.5302 51.5735 17.6579C51.6135 16.7701 51.889 15.9462 52.3998 15.1862C52.9107 14.4263 53.6315 13.7894 54.5623 13.2758C55.3644 12.8331 56.1764 12.5724 56.9982 12.4935C57.8146 12.4048 58.575 12.4955 59.2794 12.7658C59.9937 13.0305 60.591 13.4697 61.0714 14.0832L59.6603 14.8619C59.1294 14.2504 58.4576 13.9105 57.645 13.8421C56.8368 13.7584 56.0168 13.946 55.185 14.4051C54.5117 14.7767 53.9962 15.2355 53.6387 15.7817C53.2911 16.3224 53.1125 16.9119 53.1029 17.5504C53.0878 18.1789 53.2633 18.825 53.6292 19.4887C53.9952 20.1524 54.4507 20.6505 54.9956 20.9829C55.5405 21.3153 56.1343 21.4786 56.7769 21.4728C57.4239 21.4517 58.0841 21.2553 58.7575 20.8837C59.5991 20.4192 60.2001 19.8227 60.5604 19.0942C60.9306 18.3601 60.9993 17.618 60.7664 16.8679L62.1775 16.0892Z" fill="white"/>
<path d="M65.4488 18.4235L62.0601 9.49096L64.217 8.67206L71.6274 15.388L70.8661 15.677L71.9407 5.73968L74.0976 4.92078L77.4863 13.8534L76.1065 14.3772L72.8743 5.85715L73.366 5.67049L72.1891 15.8645L70.7459 16.4124L63.1108 9.58215L63.6024 9.39549L66.8286 17.8997L65.4488 18.4235Z" fill="white"/>
<path d="M84.457 12.4077C83.3651 12.6552 82.3538 12.6699 81.4231 12.4516C80.5034 12.2309 79.7282 11.8034 79.0976 11.1691C78.4669 10.5348 78.0428 9.73775 77.8254 8.77781C77.6055 7.80683 77.6447 6.90473 77.943 6.0715C78.2413 5.23827 78.7578 4.52377 79.4926 3.92802C80.2383 3.32976 81.1572 2.90689 82.2491 2.65938C83.352 2.40938 84.3633 2.39475 85.283 2.61549C86.2026 2.83624 86.9766 3.25823 87.6047 3.88145C88.2439 4.50218 88.6735 5.29803 88.8934 6.26901C89.1108 7.22895 89.0661 8.1323 88.7593 8.97906C88.4635 9.82333 87.9482 10.5433 87.2135 11.1391C86.4788 11.7348 85.5599 12.1577 84.457 12.4077ZM84.1683 11.1333C84.9845 10.9483 85.6579 10.6449 86.1885 10.223C86.7166 9.79009 87.0794 9.26705 87.2768 8.65389C87.4852 8.03824 87.5057 7.36078 87.3383 6.62151C87.1733 5.89328 86.8642 5.29634 86.4109 4.83069C85.9686 4.36253 85.4159 4.047 84.7528 3.88409C84.0898 3.72118 83.3501 3.73223 82.534 3.91723C81.7288 4.09974 81.0567 4.4087 80.5175 4.84411C79.9894 5.27703 79.6267 5.80006 79.4293 6.41322C79.2319 7.02638 79.2156 7.69707 79.3806 8.4253C79.548 9.16456 79.8529 9.76827 80.2952 10.2364C80.7375 10.7046 81.2902 11.0201 81.9532 11.183C82.6248 11.3324 83.3632 11.3158 84.1683 11.1333Z" fill="white"/>
<path d="M93.0864 1.51589L94.6373 1.34173L95.644 10.3135L94.0931 10.4877L93.0864 1.51589ZM88.9145 1.45501L98.6919 0.357021L98.8338 1.62184L89.0564 2.71983L88.9145 1.45501Z" fill="white"/>
<path d="M101.131 0.172428L102.692 0.184481L102.664 3.79903L102.577 4.10383L102.565 5.64807L102.646 6.14085L102.596 12.5384L101.036 12.5264L101.131 0.172428ZM101.925 4.94734C102.182 3.9537 102.568 3.08552 103.082 2.34278C103.608 1.60013 104.235 1.02231 104.962 0.60931C105.7 0.196401 106.51 -0.0066469 107.392 0.000165874C108.331 0.00741536 109.16 0.223128 109.881 0.647304C110.601 1.07148 111.162 1.65847 111.564 2.40829C111.976 3.15819 112.179 4.03091 112.171 5.02647C112.163 6.01071 111.948 6.88021 111.523 7.63496C111.11 8.37848 110.54 8.9624 109.813 9.3867C109.086 9.7997 108.254 10.0026 107.315 9.99532C106.433 9.98851 105.626 9.77297 104.894 9.34871C104.174 8.92453 103.556 8.3371 103.042 7.58642C102.539 6.82451 102.167 5.94481 101.925 4.94734ZM110.577 5.01415C110.582 4.29011 110.434 3.64974 110.133 3.09304C109.844 2.53642 109.434 2.10334 108.905 1.79378C108.387 1.47299 107.795 1.31002 107.128 1.30487C106.449 1.29963 105.82 1.45316 105.241 1.76548C104.673 2.06657 104.167 2.49258 103.721 3.04352C103.276 3.59445 102.904 4.23081 102.604 4.95258C102.892 5.67889 103.255 6.32092 103.692 6.87867C104.129 7.43642 104.628 7.87586 105.191 8.197C105.766 8.50691 106.392 8.66448 107.071 8.66972C107.738 8.67487 108.333 8.52673 108.855 8.2253C109.389 7.91263 109.805 7.48027 110.104 6.92819C110.413 6.37621 110.571 5.73819 110.577 5.01415Z" fill="white"/>
<path d="M118.901 10.849C117.813 10.7057 116.876 10.3711 116.09 9.84523C115.317 9.30965 114.737 8.63994 114.353 7.8361C113.981 7.02252 113.859 6.12781 113.988 5.15197C114.118 4.16492 114.456 3.3308 115.002 2.64962C115.548 1.96844 116.246 1.47281 117.097 1.16272C117.947 0.852636 118.889 0.765572 119.92 0.901531C120.94 1.03601 121.802 1.37783 122.506 1.92698C123.209 2.47614 123.714 3.18746 124.021 4.06094C124.341 4.92469 124.43 5.89496 124.288 6.97175L115.105 5.76141L115.267 4.5332L123.794 5.65708L122.812 6.0926C122.872 5.38152 122.784 4.74806 122.549 4.19219C122.315 3.63633 121.958 3.1842 121.479 2.83581C121 2.48742 120.419 2.26815 119.735 2.178C118.995 2.08046 118.33 2.14691 117.741 2.37735C117.153 2.59656 116.667 2.95468 116.282 3.45169C115.908 3.95019 115.674 4.56397 115.577 5.29305C115.477 6.05577 115.564 6.74045 115.837 7.34709C116.111 7.95373 116.542 8.44986 117.13 8.83546C117.718 9.22106 118.438 9.47002 119.29 9.58234C120.064 9.68431 120.838 9.65507 121.612 9.49462C122.397 9.33566 123.116 9.07101 123.769 8.70067L123.61 9.91206C122.965 10.3063 122.22 10.5904 121.376 10.7644C120.533 10.9272 119.708 10.9554 118.901 10.849Z" fill="white"/>
<path d="M129.986 3.48558L131.502 3.85374L129.374 12.6273L127.858 12.2591L129.986 3.48558ZM126.087 1.99793L135.649 4.3189L135.349 5.55577L125.787 3.23481L126.087 1.99793Z" fill="white"/>
<path d="M134.429 13.9407L137.649 4.94607L139.118 5.47253L136.064 14.0039L135.725 13.0892L139.925 14.5942C140.564 14.8231 141.126 14.8445 141.613 14.6585C142.104 14.4619 142.449 14.0866 142.647 13.5328C142.849 12.9683 142.821 12.4595 142.563 12.0065C142.309 11.5428 141.862 11.1965 141.223 10.9676L137.135 9.50263L137.541 8.36831L141.757 9.87902C142.449 10.127 143.007 10.465 143.43 10.8931C143.864 11.325 144.145 11.8161 144.272 12.3665C144.399 12.9168 144.358 13.4849 144.148 14.0707C143.935 14.6671 143.604 15.1375 143.157 15.4818C142.709 15.8262 142.18 16.0274 141.571 16.0854C140.972 16.1473 140.327 16.0542 139.635 15.8062L134.429 13.9407Z" fill="white"/>
<path d="M165.106 26.8841C163.523 25.687 163.185 23.4321 164.402 21.821C165.619 20.2099 167.88 19.9194 169.463 21.1165C171.047 22.3136 171.364 24.5956 170.167 26.1796C168.96 27.7772 166.69 28.0812 165.106 26.8841ZM165.536 26.3155C166.835 27.2977 168.648 27.009 169.599 25.7499C170.571 24.4637 170.333 22.6674 169.034 21.6851C167.775 20.7336 165.952 20.951 164.97 22.2507C163.989 23.5505 164.277 25.3639 165.536 26.3155Z" fill="white"/>
<path d="M188.5 49.5167C187.822 49.8769 187.102 50.0338 186.342 49.9873C185.589 49.9498 184.852 49.7289 184.132 49.3246C183.412 48.9202 182.775 48.3535 182.22 47.6245C181.576 46.7784 181.173 45.9045 181.013 45.0028C180.862 44.0943 180.942 43.2293 181.255 42.4079C181.584 41.5887 182.14 40.8809 182.923 40.2846C183.705 39.6883 184.531 39.344 185.399 39.2517C186.282 39.1615 187.137 39.3137 187.964 39.7082C188.79 40.1027 189.525 40.723 190.169 41.569C190.724 42.2981 191.1 43.0636 191.298 43.8654C191.506 44.6604 191.527 45.4262 191.363 46.1628C191.205 46.9084 190.858 47.5637 190.322 48.1288L189.346 46.8461C189.873 46.2314 190.111 45.5169 190.059 44.7026C190.024 43.8906 189.719 43.1065 189.143 42.3504C188.677 41.7383 188.148 41.2953 187.556 41.0213C186.97 40.7563 186.361 40.6657 185.729 40.7495C185.105 40.8265 184.492 41.0945 183.889 41.5538C183.286 42.013 182.86 42.5365 182.611 43.1244C182.362 43.7123 182.287 44.3237 182.387 44.9589C182.502 45.5961 182.793 46.2208 183.259 46.8328C183.841 47.5979 184.519 48.1055 185.292 48.3555C186.072 48.6146 186.816 48.5741 187.524 48.2341L188.5 49.5167Z" fill="white"/>
<path d="M186.597 52.9625L194.925 48.286L196.054 50.2986L190.513 58.6254L190.115 57.9151L200.097 57.5055L201.227 59.518L192.898 64.1945L192.176 62.907L200.12 58.4465L200.377 58.9053L190.125 59.2518L189.37 57.9052L194.99 49.339L195.248 49.7978L187.319 54.25L186.597 52.9625Z" fill="white"/>
<path d="M195.516 71.2251C195.111 70.1809 194.948 69.1824 195.027 68.2293C195.11 67.2868 195.419 66.457 195.954 65.7398C196.488 65.0225 197.214 64.4858 198.131 64.1297C199.059 63.7695 199.957 63.6758 200.825 63.8486C201.692 64.0214 202.475 64.4276 203.172 65.0672C203.873 65.7173 204.426 66.5644 204.831 67.6086C205.24 68.6632 205.403 69.6618 205.32 70.6043C205.237 71.5468 204.933 72.3746 204.409 73.0878C203.889 73.8114 203.165 74.3534 202.238 74.7136C201.32 75.0697 200.421 75.1582 199.538 74.9789C198.66 74.8102 197.872 74.4061 197.175 73.7665C196.479 73.1269 195.925 72.2798 195.516 71.2251ZM196.734 70.7523C197.037 71.5328 197.436 72.1546 197.931 72.6177C198.436 73.0767 199.007 73.3588 199.642 73.4641C200.281 73.58 200.954 73.5007 201.661 73.2265C202.356 72.9563 202.901 72.5627 203.295 72.0458C203.693 71.5393 203.924 70.9461 203.988 70.266C204.051 69.5859 203.932 68.8557 203.629 68.0752C203.33 67.3053 202.926 66.6855 202.416 66.216C201.911 65.757 201.34 65.4748 200.705 65.3695C200.07 65.2642 199.404 65.3467 198.708 65.6168C198.002 65.8911 197.45 66.2814 197.052 66.7879C196.654 67.2943 196.423 67.8876 196.359 68.5676C196.31 69.2541 196.435 69.9824 196.734 70.7523Z" fill="white"/>
<path d="M207.62 78.4654L208.016 79.9753L199.288 82.2705L198.892 80.7606L207.62 78.4654ZM207.076 74.3269L209.577 83.8463L208.347 84.1698L205.846 74.6505L207.076 74.3269Z" fill="white"/>
<path d="M209.928 85.3949L210.15 86.9403L206.573 87.4537L206.259 87.4131L204.731 87.6324L204.256 87.7863L197.926 88.695L197.704 87.1496L209.928 85.3949ZM205.328 86.8953C206.348 87.0002 207.264 87.2517 208.075 87.6496C208.888 88.0587 209.553 88.5918 210.07 89.2491C210.588 89.9176 210.91 90.6885 211.036 91.562C211.169 92.4915 211.08 93.3444 210.768 94.1206C210.457 94.8967 209.961 95.5394 209.28 96.0487C208.6 96.5691 207.768 96.9 206.783 97.0414C205.809 97.1812 204.917 97.0977 204.108 96.791C203.311 96.4939 202.649 96.0175 202.121 95.3619C201.604 94.7046 201.279 93.9112 201.145 92.9817C201.02 92.1082 201.112 91.2778 201.422 90.4904C201.733 89.7142 202.222 89.0156 202.887 88.3944C203.564 87.7827 204.378 87.2831 205.328 86.8953ZM206.557 95.4623C207.273 95.3595 207.884 95.1175 208.389 94.7364C208.896 94.3665 209.263 93.8967 209.489 93.327C209.729 92.7668 209.801 92.1564 209.706 91.4957C209.61 90.8237 209.364 90.2247 208.969 89.6986C208.586 89.182 208.089 88.7447 207.478 88.3867C206.867 88.0287 206.182 87.7555 205.424 87.5672C204.75 87.9612 204.169 88.416 203.683 88.9314C203.198 89.4469 202.838 90.0072 202.605 90.6121C202.385 91.2266 202.323 91.8698 202.419 92.5418C202.514 93.2025 202.749 93.7687 203.125 94.2405C203.514 94.7218 204.004 95.0687 204.594 95.2812C205.186 95.5048 205.84 95.5652 206.557 95.4623Z" fill="white"/>
<path d="M202.015 104.546C201.994 103.449 202.184 102.472 202.586 101.616C202.999 100.77 203.575 100.097 204.311 99.5966C205.06 99.1069 205.926 98.8526 206.91 98.8336C207.905 98.8143 208.78 99.0238 209.535 99.4618C210.29 99.8998 210.884 100.516 211.318 101.311C211.752 102.106 211.979 103.024 211.999 104.065C212.019 105.094 211.81 105.998 211.372 106.776C210.935 107.554 210.308 108.16 209.49 108.594C208.684 109.04 207.739 109.273 206.653 109.294L206.475 100.03L207.713 100.006L207.879 108.608L207.301 107.703C208.013 107.655 208.626 107.474 209.14 107.158C209.654 106.843 210.048 106.422 210.32 105.897C210.593 105.371 210.723 104.763 210.709 104.073C210.695 103.326 210.53 102.679 210.214 102.13C209.909 101.582 209.482 101.154 208.934 100.848C208.385 100.553 207.743 100.413 207.008 100.427C206.239 100.442 205.576 100.63 205.017 100.992C204.458 101.353 204.033 101.854 203.74 102.493C203.447 103.132 203.308 103.882 203.325 104.742C203.34 105.522 203.485 106.283 203.759 107.025C204.034 107.777 204.403 108.449 204.867 109.04L203.646 109.064C203.16 108.485 202.767 107.791 202.469 106.982C202.182 106.172 202.03 105.361 202.015 104.546Z" fill="white"/>
</svg>
